<?xml version="1.0" standalone="no"?>
<!DOCTYPE svg PUBLIC "-//W3C//DTD SVG 20010904//EN"
 "http://www.w3.org/TR/2001/REC-SVG-20010904/DTD/svg10.dtd">
<svg version="1.0" xmlns="http://www.w3.org/2000/svg"
 width="1024.000000pt" height="1024.000000pt" viewBox="0 0 1024.000000 1024.000000"
 preserveAspectRatio="xMidYMid meet">
<metadata>
Created by potrace 1.14, written by Peter Selinger 2001-2017
</metadata>
<g transform="translate(0.000000,1024.000000) scale(0.100000,-0.100000)"
fill="#000000" stroke="none">
<path d="M0 5120 l0 -5120 2019 0 c1451 0 2027 3 2050 11 23 8 58 8 133 -1 91
-11 103 -11 113 4 10 12 29 16 89 16 42 0 76 4 76 8 0 5 104 12 232 15 300 8
335 27 50 27 -176 0 -202 2 -202 16 0 13 13 15 78 12 42 -1 130 -2 194 0 116
2 118 2 124 27 l6 25 162 2 c88 1 142 3 119 5 -74 7 -47 23 37 23 57 0 80 -4
80 -12 0 -9 18 -14 50 -15 l50 -2 0 55 c0 34 6 64 16 79 18 28 44 33 44 10 0
-8 5 -15 10 -15 6 0 10 -22 10 -49 0 -31 5 -53 15 -61 8 -7 12 -16 9 -21 -3
-5 4 -9 15 -9 12 0 21 -5 21 -11 0 -17 153 -1 163 17 5 8 18 12 35 9 71 -12
91 -12 96 -2 3 9 5 8 5 0 1 -8 9 -5 21 7 11 11 33 20 50 20 17 0 30 3 30 8 1
14 37 50 58 56 18 6 22 3 22 -13 0 -18 6 -21 40 -21 22 0 40 5 40 10 0 6 18
10 39 10 33 0 40 4 45 25 6 24 10 25 77 25 53 0 71 4 75 15 4 8 18 15 33 15
18 0 22 3 13 9 -14 9 37 21 89 21 15 0 29 7 33 15 4 11 23 15 81 15 43 0 75 4
75 10 0 6 -18 10 -39 10 -25 0 -41 5 -45 15 -5 13 17 15 159 15 l165 0 0 -40
0 -40 40 0 c26 0 40 -4 40 -13 0 -17 72 -16 78 1 6 18 162 17 162 -1 0 -9 13
-13 38 -12 l37 1 5 74 5 75 41 -1 c31 0 41 3 37 13 -4 9 6 13 36 13 28 0 41
-4 41 -13 0 -10 12 -13 40 -12 28 1 40 -2 40 -12 0 -9 13 -13 40 -13 l40 0 0
-65 0 -64 118 1 c64 1 208 0 320 0 l202 -2 0 -25 c0 -22 4 -25 39 -25 33 0 40
4 43 23 3 21 16 25 68 18 6 0 10 -17 10 -36 l0 -35 -80 0 c-79 0 -80 0 -80
-25 0 -22 4 -25 40 -25 22 0 40 5 40 10 0 6 18 10 40 10 39 0 40 -1 40 -35 0
-34 1 -35 40 -35 22 0 40 5 40 10 0 6 33 10 80 10 47 0 80 4 80 10 0 6 18 10
40 10 22 0 40 -4 40 -10 0 -5 -18 -10 -40 -10 -29 0 -40 -4 -40 -15 0 -11 11
-15 40 -15 36 0 40 -2 40 -25 0 -22 4 -25 39 -25 22 0 41 4 43 9 2 5 38 12 81
16 67 6 77 5 77 -9 0 -12 -10 -16 -40 -16 -22 0 -40 -4 -40 -9 0 -11 145 -25
160 -16 6 4 44 3 85 0 66 -6 75 -10 75 -27 0 -19 4 -20 80 -13 56 5 80 4 80
-4 0 -8 115 -11 400 -11 l400 0 0 5120 0 5120 -5120 0 -5120 0 0 -5120z m1615
4098 c246 -87 421 -168 593 -275 404 -250 720 -596 863 -948 42 -103 35 -112
-11 -16 -22 46 -43 81 -46 79 -2 -3 0 -18 6 -34 11 -28 11 -28 -10 -9 -16 14
-19 15 -15 3 4 -9 0 -18 -10 -22 -11 -4 -14 -2 -9 6 4 6 -3 4 -17 -5 -13 -9
-31 -17 -41 -17 -10 0 -18 -4 -18 -10 0 -5 -5 -10 -11 -10 -23 0 -79 -33 -72
-43 4 -6 0 -8 -11 -4 -10 4 -28 -1 -43 -10 -14 -10 -35 -19 -47 -20 -11 -2
-35 -12 -54 -23 -18 -11 -38 -20 -43 -20 -6 0 -22 -9 -36 -20 -29 -23 -102
-28 -104 -7 -1 6 -5 1 -9 -13 -7 -21 -8 -22 -9 -5 -1 17 -3 17 -11 5 -7 -11
-10 -11 -10 -2 0 7 -5 10 -10 7 -6 -4 -8 -16 -5 -28 2 -12 2 -16 -1 -8 -5 11
-8 11 -16 0 -7 -10 -8 -9 -3 6 3 11 18 67 33 125 24 96 27 120 26 295 -1 139
-6 205 -17 245 l-15 55 6 -80 c11 -131 6 -324 -12 -415 -18 -96 -55 -210 -68
-210 -5 0 -7 -4 -4 -9 3 -5 -1 -21 -8 -37 l-15 -27 -13 29 c-7 16 -15 31 -19
34 -3 3 -21 32 -39 65 -39 72 -162 291 -240 430 -122 215 -163 286 -171 291
-8 4 145 -299 161 -321 28 -38 190 -379 186 -391 -3 -8 -2 -12 3 -9 13 7 24
-30 16 -55 -3 -11 -2 -20 3 -20 6 0 12 5 14 12 3 8 7 6 11 -4 5 -13 0 -16 -24
-13 -21 3 -29 0 -29 -11 0 -8 -6 -17 -13 -20 -8 -3 -29 -34 -47 -69 -19 -36
-37 -65 -42 -65 -4 0 -8 -6 -8 -13 0 -8 -9 -22 -20 -32 -11 -10 -20 -23 -20
-29 0 -18 -16 -37 -32 -40 -19 -2 -48 -25 -48 -37 0 -5 9 -9 20 -9 28 0 25
-13 -12 -50 -26 -26 -29 -34 -17 -42 10 -7 9 -8 -6 -3 -11 4 -36 8 -55 10 -43
2 -164 78 -253 158 -7 6 -33 30 -57 52 l-43 40 36 -45 c42 -53 160 -161 235
-214 57 -41 57 -42 40 -52 -6 -4 -9 -3 -6 2 3 5 -10 17 -30 27 -31 16 -34 16
-22 2 11 -14 11 -18 0 -25 -10 -6 -8 -9 6 -13 13 -3 11 -5 -8 -6 -24 -1 -28
-5 -28 -30 0 -17 -4 -32 -9 -36 -6 -3 -20 -26 -32 -50 -12 -25 -26 -45 -31
-45 -4 0 -8 -6 -8 -13 0 -7 -9 -18 -20 -25 -11 -7 -20 -17 -20 -23 0 -18 -26
-39 -37 -28 -5 5 -8 -9 -7 -39 1 -27 -2 -55 -7 -63 -7 -10 -9 0 -6 31 2 25 2
35 0 23 -5 -27 -23 -31 -23 -6 0 9 -3 14 -6 10 -4 -3 -2 -20 4 -36 6 -17 9
-31 7 -31 -11 0 -45 82 -39 92 5 7 3 8 -6 3 -10 -6 -12 -4 -7 9 4 9 3 15 -1
12 -10 -6 -73 176 -102 292 -99 399 -128 798 -89 1247 9 112 52 477 69 595 16
112 33 116 225 48z m5879 -233 c126 -41 179 -70 256 -142 74 -68 115 -133 151
-236 30 -85 42 -169 14 -97 l-14 35 6 -47 c7 -56 -5 -141 -18 -133 -5 4 -9 19
-9 35 0 46 -30 148 -63 218 -35 73 -104 149 -159 175 -188 89 -457 -15 -668
-258 -124 -142 -220 -301 -274 -454 -24 -67 -57 -137 -42 -88 5 15 3 16 -15 6
-11 -6 -23 -8 -27 -5 -3 3 0 6 6 6 7 0 -6 16 -28 36 -22 20 -40 43 -40 50 0 8
-4 14 -9 14 -5 0 -12 12 -17 28 -6 22 -8 24 -12 8 -3 -15 -6 -16 -13 -5 -11
18 -34 -37 -65 -156 -13 -49 -23 -77 -24 -62 0 41 36 211 59 280 11 31 16 57
12 57 -12 0 -45 -82 -75 -184 -14 -50 -30 -92 -35 -95 -5 -3 -11 -15 -14 -26
-16 -54 7 72 29 158 75 302 258 581 497 759 146 108 273 157 404 158 67 0 101
-6 187 -35z m-4597 -43 c71 -48 143 -124 174 -183 18 -35 23 -58 21 -114 -1
-38 -6 -82 -12 -97 -5 -15 -15 -41 -21 -58 -13 -34 -29 -40 -29 -11 0 11 -5
23 -12 27 -8 5 -9 0 -5 -16 12 -48 -13 -2 -41 75 -47 127 -52 138 -57 133 -3
-3 6 -36 20 -75 13 -39 29 -89 33 -111 l9 -40 -48 25 c-27 14 -66 41 -87 59
-22 18 -42 30 -46 27 -3 -3 -6 -1 -6 6 0 7 -4 10 -9 7 -4 -3 -13 6 -20 20 -6
14 -15 23 -19 20 -9 -5 -10 3 -18 94 -6 70 10 195 32 248 l13 33 35 -15 c19
-8 61 -32 93 -54z m2625 -3 c67 -15 130 -46 243 -123 172 -116 268 -243 294
-390 7 -39 10 -256 9 -620 l-2 -561 -6 585 c-5 575 -6 586 -28 644 -28 76 -62
132 -102 173 -38 39 -155 120 -145 101 3 -7 0 -5 -9 6 -13 17 -24 18 -102 11
-117 -10 -161 -26 -413 -157 -119 -62 -219 -112 -224 -110 -4 1 -6 -38 -5 -87
l3 -90 23 21 c12 12 22 18 22 14 0 -4 13 1 30 10 21 13 26 21 17 27 -7 5 -4 6
10 2 14 -4 42 6 82 28 34 19 59 36 56 38 -2 3 5 6 17 6 12 1 26 9 30 18 5 8
18 15 28 15 10 0 21 4 24 9 3 5 22 12 42 15 30 6 33 10 23 22 -10 12 -9 13 3
9 10 -4 27 5 42 20 21 21 33 25 52 21 17 -5 41 1 71 15 37 18 57 21 121 17 89
-5 160 -36 212 -92 19 -19 37 -33 42 -30 5 3 7 2 6 -3 -4 -14 13 -53 22 -53
11 0 44 -109 36 -117 -3 -4 -6 1 -6 9 0 24 -58 129 -88 161 -73 77 -175 103
-291 73 -56 -14 -589 -276 -628 -307 -7 -6 -13 -26 -13 -45 0 -41 -27 -123
-47 -146 -18 -20 -156 -98 -173 -98 -6 0 -8 4 -5 10 3 6 -1 7 -10 3 -13 -4
-14 -8 -4 -13 8 -5 -22 -25 -82 -55 -52 -26 -191 -97 -309 -158 -118 -61 -266
-136 -329 -169 -63 -32 -119 -62 -125 -68 -5 -5 -18 -10 -27 -10 -15 0 -16 5
-7 36 5 20 8 84 6 143 -5 166 -30 199 -245 316 -97 53 -107 56 -134 45 -16 -7
-29 -15 -30 -19 -6 -45 -12 -68 -21 -76 -8 -7 -9 -5 -4 8 3 10 6 29 6 43 0 44
52 81 260 188 113 57 382 194 598 305 250 128 404 201 423 201 16 0 44 -6 62
-13 31 -13 36 -11 172 60 256 136 377 187 457 192 9 1 41 -4 70 -10z m2082
-269 c158 -80 237 -282 207 -533 -16 -137 -107 -384 -165 -447 -26 -28 -61
-80 -53 -80 2 0 -10 -16 -28 -35 -19 -19 -44 -54 -57 -77 -13 -24 -27 -42 -31
-40 -5 2 -20 -9 -35 -25 -14 -15 -30 -27 -34 -26 -4 2 -8 -4 -8 -12 0 -9 -8
-19 -17 -22 -10 -4 -20 -10 -23 -13 -13 -18 -112 -71 -170 -90 -129 -44 -272
-12 -350 76 -99 114 -135 328 -89 542 43 202 108 346 230 508 81 108 147 169
244 227 105 62 156 77 250 74 62 -2 91 -8 129 -27z m-4086 -146 c32 -89 24
-303 -13 -344 -8 -9 -12 -20 -8 -24 4 -4 0 -4 -10 0 -10 3 -17 1 -17 -6 0 -6
-4 -8 -10 -5 -5 3 -10 0 -10 -8 0 -16 -41 -37 -70 -37 -11 0 -20 -4 -20 -10 0
-5 -18 -10 -40 -10 -22 0 -40 5 -40 11 0 5 -5 7 -10 4 -6 -4 -8 -11 -5 -16 4
-5 1 -9 -4 -9 -6 0 -11 4 -11 9 0 14 50 123 69 151 21 30 34 63 22 56 -10 -7
-101 -163 -101 -174 0 -4 -6 -16 -13 -25 -10 -15 -12 -10 -9 30 2 36 0 44 -7
33 -6 -8 -11 -12 -12 -7 -1 4 -2 10 -4 15 -1 4 -5 21 -10 37 -4 17 -14 38 -21
49 -10 14 -10 23 -1 38 8 12 9 21 2 26 -19 13 -3 58 16 47 5 -3 6 0 3 8 -6 17
55 74 134 125 60 38 161 83 176 79 5 -2 16 -21 24 -43z m1889 20 c-3 -3 -12
-4 -19 -1 -8 3 -5 6 6 6 11 1 17 -2 13 -5z m434 -15 c39 -13 96 -64 124 -111
15 -27 10 -23 -32 19 -28 29 -75 64 -105 77 -55 25 -47 35 13 15z m2091 -81
c-7 -7 -12 -8 -12 -2 0 14 12 26 19 19 2 -3 -1 -11 -7 -17z m959 -244 c36 -38
70 -77 76 -88 9 -17 26 -6 173 108 89 70 165 125 167 122 6 -6 -151 -239 -192
-285 -19 -21 -53 -46 -76 -57 -40 -17 -41 -19 -18 -25 13 -4 47 -7 75 -8 66
-1 73 -10 27 -32 -103 -49 -256 -60 -320 -24 -17 10 -20 14 -8 11 99 -24 89
-17 -45 34 -47 18 -103 35 -125 39 l-40 7 33 17 c20 11 56 18 93 19 32 0 59 2
59 3 0 1 -18 62 -40 136 -22 74 -43 151 -47 173 l-6 39 74 -61 c41 -33 104
-91 140 -128z m-2998 -141 c5 -231 26 -359 127 -768 44 -178 197 -861 221
-985 57 -295 137 -1000 194 -1710 31 -379 30 -371 52 -363 11 4 14 3 9 -6 -5
-7 -16 -9 -28 -5 -12 3 -18 2 -15 -3 5 -8 -97 -62 -144 -76 -20 -6 -75 -135
-135 -312 -53 -159 -74 -256 -74 -342 0 -64 1 -67 41 -105 41 -39 106 -76 172
-97 20 -7 37 -19 37 -27 0 -9 -4 -12 -10 -9 -5 3 -57 -14 -114 -39 -58 -26
-108 -46 -111 -46 -11 0 -207 -90 -1320 -603 -655 -302 -1247 -590 -1333 -648
-24 -16 -47 -29 -51 -29 -10 0 6 -95 -146 865 -19 121 -55 355 -80 520 -25
165 -57 372 -71 460 -85 539 -202 1315 -235 1555 -16 119 -22 218 -23 356 l-1
190 49 80 c27 43 83 133 124 199 200 321 224 366 301 549 81 192 142 304 217
400 l43 54 1143 570 c629 314 1146 571 1149 571 4 1 9 -88 12 -196z m-958 -69
c-11 -9 -245 -128 -519 -266 -377 -188 -509 -250 -539 -251 -22 -1 -41 3 -43
8 -2 6 17 10 44 11 41 1 113 34 552 256 278 140 510 255 515 256 6 1 1 -6 -10
-14z m2855 -101 c-69 -208 -209 -413 -365 -530 -43 -32 -84 -55 -50 -29 187
150 343 367 405 564 13 40 25 70 27 68 3 -3 -5 -35 -17 -73z m-4354 44 l-28
-23 52 -44 c54 -45 87 -54 140 -37 l25 8 -25 -21 c-13 -12 -56 -40 -95 -62
-38 -23 -83 -50 -100 -60 -27 -18 -28 -19 -5 -12 14 4 28 11 31 17 4 5 14 7
23 4 8 -3 18 -2 21 3 4 6 11 10 16 10 20 0 -2 -19 -46 -40 -24 -12 -50 -18
-56 -14 -7 4 -9 3 -6 -3 9 -14 -70 -56 -85 -47 -6 4 -8 3 -5 -3 3 -5 -40 -33
-96 -63 -56 -29 -131 -71 -166 -92 -34 -21 -64 -38 -66 -38 -13 0 -95 -86
-131 -137 -48 -66 -126 -223 -132 -263 -1 -14 -12 -42 -23 -63 -10 -21 -19
-46 -19 -57 0 -11 -4 -20 -8 -20 -12 0 -33 -108 -42 -217 -7 -82 -8 -66 -7 99
1 109 -1 190 -4 181 -4 -12 -8 -13 -13 -5 -4 7 -11 10 -16 7 -4 -3 -10 1 -13
9 -3 7 -22 16 -41 20 -20 4 -36 11 -36 16 0 5 -9 7 -20 5 -15 -3 -20 2 -21 18
-1 19 -2 18 -15 -8 -14 -29 -15 -27 -9 37 13 157 96 335 213 459 42 45 102 99
135 121 71 48 653 336 682 337 17 1 16 -2 -9 -22z m151 -268 c48 -26 73 -49
73 -64 0 -6 -51 -36 -112 -65 -234 -110 -395 -193 -440 -226 -111 -82 -205
-213 -255 -356 -50 -144 -52 -172 -57 -1113 -3 -484 -6 -990 -8 -1125 -1 -135
-5 261 -8 880 -5 1162 -2 1277 35 1365 21 51 28 270 8 253 -18 -14 -16 2 3 27
13 17 16 18 25 5 7 -11 8 -8 4 11 -8 33 42 92 130 152 79 55 514 276 542 277
12 0 39 -9 60 -21z m4871 4 c-15 -2 -42 -2 -60 0 -18 2 -6 4 27 4 33 0 48 -2
33 -4z m-4798 -157 c0 -2 -7 -7 -16 -10 -8 -3 -12 -2 -9 4 6 10 25 14 25 6z
m-41 -21 c-9 -8 -79 -35 -79 -30 0 3 15 11 33 19 32 15 54 20 46 11z m-137
-65 c-18 -11 -37 -20 -43 -20 -7 0 -6 -6 2 -17 13 -15 12 -15 -7 -3 -17 10
-26 10 -52 -4 -19 -10 -30 -21 -26 -28 4 -7 3 -8 -5 -4 -16 11 -53 -4 -48 -18
4 -9 -3 -12 -17 -11 -14 2 -23 -3 -23 -11 0 -8 4 -14 9 -14 4 0 8 5 8 11 0 5
5 7 12 3 9 -6 9 -9 0 -12 -7 -2 -10 -8 -7 -13 4 -5 -1 -6 -10 -3 -9 4 -25 -2
-38 -13 -12 -11 -31 -23 -42 -27 -15 -5 -16 -9 -6 -15 9 -6 10 -11 2 -15 -6
-4 -11 -2 -11 3 0 6 -4 11 -10 11 -5 0 -10 -7 -10 -15 0 -9 -6 -12 -17 -8 -10
4 -14 2 -10 -4 7 -12 -17 -26 -27 -16 -7 7 13 33 25 33 4 0 23 14 41 30 18 17
27 30 21 30 -7 0 -52 -39 -100 -87 -97 -97 -142 -170 -180 -293 l-24 -75 5 61
c8 92 58 202 133 291 41 49 181 153 206 153 11 0 193 81 237 105 39 22 49 17
12 -5z m-2659 -1 c135 -20 287 -74 354 -125 18 -14 31 -29 28 -35 -3 -5 0 -6
8 -4 7 3 22 -5 32 -17 11 -13 13 -17 5 -10 -20 17 -35 15 -20 -3 7 -8 9 -15 6
-15 -4 0 0 -10 8 -22 9 -12 16 -35 16 -49 0 -15 4 -29 9 -31 5 -1 3 -24 -4
-50 -10 -40 -9 -50 4 -64 20 -22 -38 19 -149 106 -183 143 -203 150 -40 14
138 -115 178 -154 159 -154 -9 0 -19 -7 -23 -15 -3 -9 -12 -12 -23 -8 -14 5
-16 3 -6 -7 23 -25 -33 -43 -109 -35 -62 6 -67 5 -65 -13 1 -13 6 -18 17 -14
10 3 12 2 5 -5 -5 -6 -21 -14 -34 -18 -18 -5 -22 -4 -16 5 5 9 4 11 -3 6 -18
-11 -37 4 -21 16 10 6 7 7 -9 3 -19 -5 -34 6 -90 62 -107 108 -168 247 -179
406 l-6 87 37 0 c20 0 70 -5 109 -11z m1102 -92 c6 -4 19 -14 30 -22 16 -12
12 -12 -20 1 -47 19 -70 37 -40 32 11 -1 25 -7 30 -11z m6469 -113 c50 -26 86
-65 113 -124 13 -30 32 -71 41 -90 28 -62 50 -80 102 -80 58 0 154 -45 197
-94 44 -47 83 -125 50 -97 -8 6 -17 8 -20 5 -3 -4 -12 5 -18 20 -7 14 -17 26
-22 26 -6 0 -8 3 -4 6 8 8 -10 26 -58 58 -39 27 -72 35 -59 14 5 -7 3 -8 -7
-2 -8 4 -23 10 -34 11 -18 2 -18 2 -3 -10 27 -20 52 -37 86 -57 43 -26 108
-128 121 -191 37 -171 -19 -397 -139 -558 -70 -95 -120 -138 -213 -185 -96
-49 -176 -53 -252 -14 -74 38 -108 82 -140 178 -33 97 -22 313 21 424 5 13 4
17 -3 13 -19 -12 -23 23 -8 59 26 62 125 203 173 245 69 61 140 107 194 125
46 15 47 15 36 47 -18 53 -67 158 -90 190 -43 60 -142 82 -229 52 -87 -31
-184 -132 -182 -191 1 -19 -3 -37 -8 -40 -5 -3 -9 -13 -9 -22 0 -18 -66 -117
-78 -117 -4 -1 -18 -7 -30 -14 -54 -30 -100 20 -109 118 -5 55 -4 58 31 93 43
43 90 56 138 39 30 -11 34 -10 53 16 108 149 244 204 359 147z m-5284 -59 c13
-18 13 -19 -1 -8 -12 10 -18 9 -31 -7 -9 -10 -14 -21 -10 -23 4 -2 2 -2 -5 -1
-13 3 -53 -46 -53 -64 0 -6 -4 -13 -9 -16 -20 -13 3 36 37 76 48 56 57 66 57
64 1 0 7 -10 15 -21z m5299 -46 c17 -17 41 -52 52 -77 12 -26 27 -59 34 -73 7
-16 9 -32 4 -40 -8 -13 -13 -5 -10 14 1 7 -22 11 -47 8 -7 -1 -15 6 -19 16 -4
9 -18 27 -31 38 -13 12 -32 42 -42 67 -15 41 -16 46 -1 56 13 9 12 10 -6 5
-13 -3 -23 -13 -24 -22 0 -12 -2 -13 -6 -2 -7 16 23 41 48 41 10 0 31 -14 48
-31z m-5579 -39 c0 -13 -1 -13 -10 0 -5 8 -10 22 -10 30 0 13 1 13 10 0 5 -8
10 -22 10 -30z m3950 -384 c177 -10 373 -57 604 -147 101 -39 146 -70 146 -98
0 -9 -22 -66 -49 -126 -27 -61 -70 -166 -96 -235 -59 -156 -165 -380 -252
-530 -37 -63 -70 -117 -73 -120 -3 -3 -17 -23 -30 -45 -35 -60 -122 -176 -127
-171 -3 2 3 17 13 33 l18 28 -23 -20 -24 -20 7 23 c10 29 -7 45 -66 62 -27 8
-48 18 -48 22 0 4 -13 8 -29 8 -20 0 -30 6 -34 20 -3 11 -12 20 -21 20 -9 0
-16 7 -16 15 0 9 -18 33 -40 55 -33 32 -40 46 -40 77 0 48 -7 57 -45 62 -50 5
-40 8 63 14 54 4 123 11 153 17 63 12 201 51 196 56 -2 2 -36 -3 -76 -11 -40
-9 -119 -20 -174 -25 -105 -10 -260 -3 -251 11 2 4 10 7 17 5 7 -1 9 -1 5 1
-5 3 -8 22 -8 44 0 21 -4 39 -10 39 -19 0 -11 89 10 110 15 15 16 20 6 20 -8
0 -18 -4 -21 -10 -3 -5 -11 -10 -18 -10 -7 0 -7 3 -1 9 8 8 224 141 479 294
55 33 105 64 110 70 16 15 -44 -17 -281 -149 -203 -113 -274 -146 -274 -130 0
3 4 14 9 24 5 9 28 62 52 117 44 104 130 266 158 299 9 11 10 16 4 12 -30 -17
-143 -202 -193 -316 -50 -113 -67 -143 -74 -132 -3 6 -1 12 5 14 5 2 7 11 4
21 -4 9 -12 14 -17 11 -6 -4 -5 -10 3 -15 10 -6 7 -8 -8 -6 -18 1 -21 6 -17
23 3 12 1 25 -5 28 -6 4 -11 15 -11 24 1 15 2 15 15 -2 8 -11 18 -16 22 -13 3
4 -3 17 -14 30 -27 29 -43 61 -43 85 0 10 -7 34 -16 52 -10 18 -18 60 -20 94
-7 113 -16 166 -30 166 -7 0 -17 23 -24 58 -20 97 -21 101 -43 108 -16 5 -17
8 -6 14 38 21 334 51 424 43 17 -1 73 -4 125 -7z m1372 -101 c-24 -41 -27 -43
-35 -23 -4 11 -5 23 -2 26 3 3 5 0 5 -7 0 -7 5 -9 10 -6 6 4 8 16 5 28 -4 15
-3 18 3 9 7 -10 11 -10 22 3 23 28 20 16 -8 -30z m-6783 -1 c90 -30 178 -82
173 -103 -1 -7 2 -10 7 -7 9 6 36 -17 73 -63 10 -11 14 -21 9 -21 -5 0 -7 -9
-4 -21 3 -11 11 -18 17 -16 22 9 28 -244 7 -316 -14 -47 -50 -84 -59 -58 -6
18 -22 13 -16 -6 6 -21 -6 4 -53 112 -50 117 -121 230 -183 294 -30 32 -43 44
-29 27 54 -63 108 -143 137 -201 52 -104 82 -188 76 -209 -4 -15 -3 -17 4 -8
7 11 10 9 15 -7 3 -13 1 -19 -6 -14 -6 4 -8 -1 -5 -14 5 -19 2 -19 -39 -12
-25 5 -49 6 -55 3 -9 -6 -64 13 -83 28 -5 5 -39 30 -75 57 -133 99 -267 259
-358 431 -62 117 -62 117 0 134 80 23 102 25 238 21 105 -2 139 -7 209 -31z
m6734 -17 c3 -8 -1 -14 -8 -14 -7 0 -11 6 -8 14 3 7 6 13 8 13 2 0 5 -6 8 -13z
m-1876 -39 c-3 -7 -5 -2 -5 12 0 14 2 19 5 13 2 -7 2 -19 0 -25z m-5504 -162
c34 -14 100 -75 118 -108 9 -16 4 -18 -41 -18 -67 0 -150 39 -188 88 -52 67
-52 66 16 59 34 -4 77 -13 95 -21z m5597 20 c0 -3 -4 -8 -10 -11 -5 -3 -10 -1
-10 4 0 6 5 11 10 11 6 0 10 -2 10 -4z m-3755 -63 c23 -35 25 -45 23 -148 l-1
-110 -6 110 c-5 89 -10 117 -28 148 -29 48 -21 48 12 0z m-1652 -199 c148 -25
275 -73 452 -171 12 -7 41 -33 63 -58 22 -25 44 -45 49 -45 5 0 17 -16 27 -35
14 -26 22 -32 29 -23 5 9 7 4 3 -13 -4 -18 0 -31 10 -39 10 -9 13 -22 9 -42
-4 -15 -3 -28 2 -28 14 0 33 -52 45 -120 10 -57 9 -70 -6 -102 -10 -20 -15
-42 -11 -47 3 -7 0 -8 -9 -5 -21 8 -21 -19 -1 -40 8 -8 11 -17 6 -20 -5 -4
-12 0 -15 6 -5 10 -7 10 -12 1 -9 -19 -30 6 -39 45 -7 32 -25 45 -25 17 0 -8
5 -15 10 -15 6 0 10 -6 10 -13 0 -14 -35 -47 -50 -47 -5 0 -17 -11 -26 -25
-30 -46 -26 -19 5 40 17 32 31 51 31 42 0 -9 3 -18 8 -20 4 -3 8 34 8 81 l1
87 -12 -56 c-12 -57 -63 -156 -92 -180 -11 -10 -14 -10 -9 -2 4 7 3 21 -3 30
-7 14 -9 9 -7 -19 3 -40 -2 -46 -22 -26 -9 9 -12 9 -12 -2 -1 -8 -7 0 -15 19
-8 18 -12 38 -8 44 3 5 1 7 -4 4 -6 -4 -23 16 -38 45 -46 88 -195 332 -216
353 -11 11 4 -20 34 -70 30 -49 77 -135 105 -190 42 -84 50 -108 49 -150 -2
-40 -6 -52 -24 -61 -13 -6 -20 -14 -17 -17 15 -14 -76 18 -131 47 -78 40 -75
39 -75 28 0 -6 15 -20 33 -32 l32 -22 -35 6 c-26 5 -32 4 -23 -5 16 -16 5 -39
-15 -32 -9 3 -27 17 -38 29 -12 13 -25 24 -29 24 -5 0 2 -11 15 -25 13 -14 21
-27 18 -30 -9 -10 -79 78 -73 93 2 7 1 11 -4 8 -25 -16 -106 149 -143 294 -27
100 -31 138 -35 291 -7 219 -5 223 75 214 31 -4 96 -13 145 -21z m1674 -256
c-2 -24 -4 -5 -4 42 0 47 2 66 4 43 2 -24 2 -62 0 -85z m-742 -27 c-19 -38
-35 -75 -35 -82 0 -7 -3 -10 -6 -7 -10 11 20 92 46 125 14 18 26 33 27 33 1 0
-13 -31 -32 -69z m-35 3 c0 -28 -23 -94 -32 -94 -5 0 -6 10 -2 23 5 12 9 34
10 50 2 36 2 37 14 37 6 0 10 -7 10 -16z m-36 -48 c-3 -14 -10 -24 -14 -21 -5
3 -10 0 -13 -7 -2 -7 -3 0 -1 17 3 16 10 32 16 36 17 11 20 5 12 -25z m7329
-181 c95 -25 156 -62 239 -147 l78 -79 42 29 c24 17 61 37 82 46 41 17 151 22
160 7 3 -5 -16 -9 -43 -9 -55 0 -125 -28 -181 -72 l-39 -31 19 -32 c24 -38 25
-47 6 -47 -7 0 -19 -7 -26 -15 -17 -21 -30 -19 -30 5 0 10 -13 35 -30 53 -29
34 -38 57 -22 57 5 0 23 -21 41 -46 47 -65 51 -46 5 23 -96 143 -220 225 -351
231 -64 4 -80 1 -135 -26 -151 -71 -238 -221 -238 -411 0 -97 18 -177 55 -251
35 -68 54 -82 346 -243 75 -41 168 -96 208 -121 l72 -46 -18 -25 c-19 -26 -38
-32 -48 -15 -3 5 -49 35 -103 66 -53 31 -178 104 -277 162 -99 58 -225 131
-280 163 -127 71 -463 261 -577 325 -48 27 -87 54 -88 61 0 6 14 16 32 22 29
10 39 7 147 -56 262 -151 419 -241 471 -268 30 -16 63 -36 73 -44 22 -18 22
-20 -9 69 -32 91 -42 228 -24 313 36 176 170 328 313 357 61 12 67 11 130 -5z
m-6508 -55 c-4 -12 -9 -19 -12 -17 -3 3 -2 15 2 27 4 12 9 19 12 17 3 -3 2
-15 -2 -27z m-420 -33 c11 -7 22 -21 23 -32 2 -11 8 -25 13 -31 12 -15 2 -23
-104 -78 -92 -48 -129 -72 -215 -144 -29 -24 -52 -40 -50 -36 1 5 -3 25 -9 44
-16 50 -23 119 -12 126 5 3 7 9 4 13 -6 11 40 57 85 86 59 37 110 51 235 63 6
1 19 -4 30 -11z m21 -130 c-9 -7 -16 -17 -14 -22 2 -6 -22 -42 -52 -82 -46
-60 -61 -72 -92 -78 -21 -4 -38 -11 -38 -15 0 -5 -22 -8 -49 -7 -40 2 -47 5
-41 17 4 8 8 20 7 25 -2 14 128 110 188 140 65 31 124 46 91 22z m-928 -103
c-1 -9 -10 -19 -18 -21 -12 -4 -12 -3 -1 5 8 6 11 18 6 33 -6 19 -5 21 5 13 6
-7 10 -20 8 -30z m137 -35 c-10 -15 -25 -10 -19 6 4 8 10 12 15 9 5 -3 7 -10
4 -15z m8092 -56 c28 -92 23 -247 -11 -348 -14 -44 -33 -91 -42 -105 -10 -16
-13 -18 -8 -5 45 126 56 185 57 290 0 104 -4 129 -38 208 -5 12 -3 17 9 17 10
0 21 -19 33 -57z m-7597 12 c-7 -8 -17 -15 -22 -15 -6 0 -5 7 2 15 7 8 17 15
22 15 6 0 5 -7 -2 -15z m6280 -190 c61 -36 130 -76 153 -89 47 -26 576 -330
732 -421 55 -32 112 -67 128 -77 l27 -19 0 -190 0 -189 -32 19 c-177 100 -410
233 -483 275 -49 29 -210 121 -357 205 -147 84 -269 155 -271 159 -7 11 -19
392 -13 392 2 0 55 -29 116 -65z m-6583 -12 c-3 -10 -5 -4 -5 12 0 17 2 24 5
18 2 -7 2 -21 0 -30z m-17 -188 c-6 -139 -7 -142 -8 -50 -2 89 7 210 13 203 2
-2 0 -70 -5 -153z m-475 110 c105 -22 204 -75 264 -141 28 -31 51 -61 51 -67
0 -7 -4 -6 -10 3 -5 8 -12 12 -15 8 -4 -3 0 -17 9 -30 9 -13 17 -56 20 -101 4
-71 3 -77 -11 -65 -14 11 -15 10 -8 -11 l7 -25 -29 25 c-17 13 -28 29 -25 34
3 6 2 7 -3 3 -4 -4 -26 8 -49 26 -51 42 -223 156 -233 156 -4 0 26 -24 67 -52
83 -59 233 -185 239 -201 2 -5 -2 -7 -9 -2 -7 4 -16 2 -21 -6 -8 -14 -69 -22
-69 -9 0 4 -33 10 -72 13 -40 4 -104 14 -143 23 -38 9 -84 17 -102 17 -17 1
-31 4 -31 7 2 24 -4 40 -13 35 -14 -9 -51 26 -44 42 2 8 0 11 -5 8 -29 -18
-124 274 -98 300 25 25 233 31 333 10z m502 -77 c-2 -18 -4 -4 -4 32 0 36 2
50 4 33 2 -18 2 -48 0 -65z m5811 -38 c-37 -72 -46 -141 -25 -192 51 -121 265
-103 508 43 47 28 82 43 85 37 7 -11 8 -11 -97 -73 -184 -109 -355 -145 -448
-96 -31 17 -70 69 -82 110 -10 32 -8 49 6 96 16 49 66 135 80 135 3 0 -9 -27
-27 -60z m-5135 28 c15 -12 15 -18 -1 -81 -10 -38 -21 -65 -25 -60 -5 4 -5 0
-2 -9 4 -9 -2 -33 -13 -55 -34 -69 -57 -108 -64 -111 -5 -2 -8 -10 -8 -18 0
-9 -4 -13 -9 -9 -5 3 -12 1 -16 -5 -3 -5 -11 -10 -17 -10 -6 0 -1 12 13 27
l24 27 -33 -23 c-19 -13 -36 -30 -39 -38 -4 -10 -8 -11 -13 -4 -4 8 -14 9 -31
2 -13 -5 -19 -10 -14 -11 6 0 3 -5 -5 -10 -20 -13 -106 -13 -131 0 -14 8 -25
6 -44 -6 -16 -10 -25 -12 -25 -5 0 13 163 180 225 230 l40 33 -45 -31 c-73
-51 -180 -142 -201 -173 -11 -15 -25 -25 -31 -22 -6 4 -8 2 -5 -3 7 -11 -17
-26 -27 -16 -3 3 10 30 29 59 44 69 44 80 0 29 -20 -23 -35 -34 -35 -25 0 13
-1 13 -11 0 -9 -13 -10 -13 -6 0 2 8 10 14 16 12 6 -1 11 2 11 8 0 6 -4 10 -9
10 -5 0 -8 18 -7 40 2 31 -1 37 -11 29 -9 -8 -11 -6 -8 11 16 83 147 186 265
209 72 14 244 13 263 -1z m4714 -94 c-3 -3 -12 -4 -19 -1 -8 3 -5 6 6 6 11 1
17 -2 13 -5z m-253 -48 c-14 -25 -31 -75 -39 -113 -10 -52 -13 -60 -14 -32 -1
47 24 130 50 163 30 38 31 32 3 -18z m306 5 c-25 -15 -73 -17 -77 -3 -3 8 9
12 44 12 32 -1 43 -3 33 -9z m-5555 -22 c12 -19 -5 -23 -22 -6 -16 16 -16 17
-1 17 9 0 20 -5 23 -11z m5618 0 c-15 -15 -93 -24 -93 -11 0 6 19 13 43 15 23
2 46 4 52 5 5 1 4 -3 -2 -9z m-5379 -19 c4 -4 5 -13 2 -19 -9 -14 -36 -14 -36
-1 0 6 -3 9 -7 9 -25 -4 -43 3 -43 17 0 13 7 15 38 9 20 -3 41 -10 46 -15z
m5468 -32 c-5 -22 -20 -34 -52 -43 -21 -5 -20 -3 8 14 17 11 32 26 32 31 0 7
-9 5 -22 -4 -15 -10 -42 -16 -78 -15 l-55 1 60 9 c47 7 64 14 80 34 17 23 20
24 26 8 3 -10 4 -25 1 -35z m-161 -83 c23 -8 59 -15 80 -15 38 0 39 -1 39 -38
0 -89 -70 -274 -121 -316 -24 -20 -27 -31 -33 -117 -9 -117 -33 -243 -56 -288
l-17 -34 -6 79 c-4 44 -10 104 -13 135 -6 50 -4 58 20 85 25 28 26 28 41 10
27 -35 16 -5 -15 40 -17 25 -27 51 -23 60 4 10 -13 32 -52 66 -31 28 -61 63
-67 77 -14 38 -27 111 -18 106 4 -3 10 9 14 26 3 17 25 50 51 76 25 25 52 58
61 74 l15 30 29 -21 c16 -11 48 -27 71 -35z m-6140 -39 c-10 -11 -10 -20 0
-38 16 -31 60 -64 79 -60 8 2 -19 -30 -61 -70 -82 -79 -107 -122 -116 -196
-15 -130 73 -250 247 -336 305 -149 729 -135 986 34 83 54 164 163 164 220 0
10 6 21 13 24 10 5 10 7 0 12 -7 3 -13 19 -13 35 0 37 -23 93 -55 135 -27 36
-33 53 -12 35 8 -6 18 -7 22 -3 5 4 5 1 1 -6 -4 -7 3 -25 18 -43 14 -17 26
-40 26 -52 0 -12 9 -42 20 -65 14 -32 17 -49 10 -62 -8 -15 -6 -17 11 -13 15
4 22 0 26 -16 3 -11 9 -21 13 -21 5 0 11 -13 15 -30 7 -32 22 -39 31 -16 3 8
11 13 18 10 9 -3 17 10 25 41 12 48 1 158 -21 199 -26 50 -77 116 -137 179
-36 37 -62 67 -57 67 22 0 113 -80 152 -132 61 -84 79 -143 79 -263 0 -99 -1
-101 -39 -160 -66 -103 -140 -171 -253 -230 -26 -15 -37 -23 -23 -19 20 5 23
4 13 -6 -8 -9 -9 -19 -3 -31 5 -9 19 -74 30 -144 11 -70 25 -136 31 -146 9
-18 11 -18 37 -3 l27 16 -25 -20 c-38 -32 -187 -106 -260 -130 -241 -79 -545
-77 -808 5 -45 14 -81 28 -79 30 2 2 39 -6 83 -16 104 -26 233 -45 241 -37 3
3 -1 6 -11 6 -9 0 -14 5 -11 10 4 6 10 8 14 6 4 -3 8 8 8 24 0 18 -6 30 -14
30 -15 0 -18 26 -3 35 6 3 7 30 3 65 -4 42 -2 60 6 60 6 0 11 -17 11 -40 0
-22 5 -40 10 -40 6 0 10 34 10 83 0 77 -2 85 -22 95 -13 6 -17 11 -10 11 6 1
12 7 12 14 0 9 28 12 112 11 l113 -2 -115 8 c-342 24 -614 131 -764 302 -90
103 -124 221 -96 339 24 104 114 219 224 288 54 34 88 42 67 17z m5852 -49
c22 -55 22 -72 -4 -106 -22 -30 -19 -51 6 -51 9 0 12 -6 9 -15 -4 -8 -1 -15 5
-15 6 0 11 -7 11 -17 0 -9 2 -14 6 -11 3 3 28 -18 56 -48 l50 -53 -28 -25
c-34 -28 -72 -88 -52 -81 7 3 21 -9 31 -27 18 -31 18 -35 1 -120 -10 -48 -21
-88 -25 -88 -4 0 -17 44 -29 98 -12 53 -35 140 -52 192 -16 52 -32 125 -35
162 -6 64 -5 68 24 97 24 24 28 32 18 43 -13 14 -35 73 -35 94 0 30 26 12 43
-29z m2 -137 c3 -5 1 -10 -4 -10 -6 0 -11 5 -11 10 0 6 2 10 4 10 3 0 8 -4 11
-10z m-119 -55 c-11 -8 -25 -15 -30 -15 -6 1 0 7 14 15 32 19 40 18 16 0z
m-4421 -25 c13 -26 14 -29 0 -24 -8 4 -15 10 -15 14 0 5 -3 15 -6 24 -11 28 5
17 21 -14z m6230 8 c60 -26 149 -82 138 -85 -7 -3 -49 12 -93 32 -45 20 -105
39 -134 42 -66 7 -152 -17 -223 -61 l-53 -33 93 -58 c183 -116 765 -427 895
-478 24 -10 41 -21 37 -26 -3 -5 -56 -37 -118 -72 -61 -34 -150 -83 -197 -109
-152 -85 -303 -167 -386 -209 -66 -34 -87 -40 -114 -34 -27 5 -30 8 -15 13 16
5 13 10 -18 29 -20 12 -42 19 -48 15 -7 -4 -9 -3 -6 3 9 15 -17 35 -108 82
-88 45 -128 54 -104 24 12 -14 -26 5 -111 56 -8 5 -12 13 -8 16 4 4 21 -3 37
-15 17 -11 36 -18 42 -14 7 4 9 3 5 -4 -7 -12 13 -21 33 -14 9 3 -3 14 -30 27
-24 12 -121 61 -216 109 -95 48 -177 85 -183 81 -5 -3 -10 -1 -10 5 0 20 32
23 59 6 14 -10 73 -40 131 -67 187 -89 465 -238 480 -258 3 -4 20 -17 38 -30
29 -20 36 -22 48 -10 7 8 15 25 16 39 3 23 -13 33 -213 135 -119 60 -236 121
-260 134 -65 35 -199 125 -239 161 -19 18 -46 40 -60 50 -14 10 -23 20 -20 23
3 2 48 32 100 67 107 71 394 283 403 297 3 5 -145 -67 -329 -159 -281 -142
-334 -165 -334 -149 0 16 82 61 419 230 231 116 437 215 458 221 48 12 160 6
198 -12z m-1908 -24 c-3 -3 -12 -4 -19 -1 -8 3 -5 6 6 6 11 1 17 -2 13 -5z
m393 -78 c0 -3 -4 -8 -10 -11 -5 -3 -10 -1 -10 4 0 6 5 11 10 11 6 0 10 -2 10
-4z m-5210 -70 c0 -2 -7 -7 -16 -10 -8 -3 -12 -2 -9 4 6 10 25 14 25 6z m5505
-36 c14 0 29 -16 48 -50 25 -47 26 -52 13 -84 -19 -45 -52 -66 -103 -66 -49 0
-58 12 -72 87 -14 71 24 130 74 118 11 -3 29 -5 40 -5z m-600 -120 c5 -35 4
-33 -22 30 -12 31 -12 33 1 20 9 -8 18 -31 21 -50z m-5987 -120 l0 -45 -9 40
c-4 22 -8 56 -7 75 l0 35 8 -30 c4 -16 8 -50 8 -75z m8803 -51 c215 -118 229
-130 229 -203 0 -54 -2 -55 -510 -323 -41 -22 -163 -86 -270 -143 -107 -56
-226 -120 -265 -140 -228 -123 -315 -112 -665 92 -110 63 -128 73 -355 198
-93 51 -171 94 -173 95 -2 2 -6 20 -9 41 -5 33 -4 37 8 27 8 -6 93 -55 189
-108 96 -54 236 -132 310 -175 74 -43 187 -104 250 -136 111 -58 116 -59 195
-59 87 0 97 3 280 103 50 26 158 83 240 127 470 245 540 282 633 337 77 46 82
51 82 83 0 41 -17 55 -182 150 -65 36 -118 71 -118 76 0 20 41 7 131 -42z
m-7074 4 c-3 -10 -5 -4 -5 12 0 17 2 24 5 18 2 -7 2 -21 0 -30z m-1730 -110
c-2 -21 -4 -6 -4 32 0 39 2 55 4 38 2 -18 2 -50 0 -70z m6968 10 c-2 -10 -4
-24 -4 -30 -1 -7 -5 -13 -11 -13 -5 0 -7 7 -5 15 3 8 7 22 10 30 6 21 14 19
10 -2z m-6266 -99 c10 -9 -55 -3 -69 6 -10 6 -2 7 25 3 22 -3 42 -7 44 -9z
m6496 -135 c28 -19 28 -20 5 -14 -41 11 -110 46 -110 56 0 11 63 -14 105 -42z
m1805 36 c0 -8 -81 -57 -86 -52 -2 2 13 16 33 30 37 25 53 32 53 22z m-1666
-24 c4 -5 -3 -7 -14 -4 -23 6 -26 13 -6 13 8 0 17 -4 20 -9z m77 -38 c13 -15
12 -15 -8 -4 -24 12 -29 21 -14 21 5 0 15 -7 22 -17z m1475 -8 c-11 -8 -25
-15 -30 -15 -6 1 0 7 14 15 32 19 40 18 16 0z m-8759 -37 c-3 -8 -6 -5 -6 6
-1 11 2 17 5 13 3 -3 4 -12 1 -19z m7078 4 c-3 -3 -11 0 -18 7 -9 10 -8 11 6
5 10 -3 15 -9 12 -12z m-844 -24 c44 -13 144 -96 154 -127 4 -14 33 -21 158
-39 83 -12 186 -25 227 -29 l75 -6 -180 -59 c-191 -62 -198 -64 -315 -48 -41
5 -163 14 -270 19 -107 6 -211 14 -230 17 -35 7 -34 7 25 21 33 7 97 28 143
45 l82 31 -32 22 c-18 13 -36 21 -40 19 -27 -16 -5 107 25 145 13 16 110 10
178 -11z m1163 -144 c55 -33 77 -41 104 -38 21 3 31 1 27 -6 -14 -23 -66 -6
-194 66 -217 122 -221 125 -221 129 0 6 202 -101 284 -151z m-7369 75 c9 -39
14 -74 11 -76 -2 -2 -9 19 -15 49 -7 29 -14 63 -17 75 -4 13 -4 23 -1 23 3 0
13 -32 22 -71z m8555 37 c0 -2 -7 -7 -16 -10 -8 -3 -12 -2 -9 4 6 10 25 14 25
6z m-40 -20 c0 -2 -7 -7 -16 -10 -8 -3 -12 -2 -9 4 6 10 25 14 25 6z m-7093
-38 c-3 -7 -5 -2 -5 12 0 14 2 19 5 13 2 -7 2 -19 0 -25z m7033 7 c0 -6 -97
-55 -107 -55 -4 1 17 14 47 30 61 32 60 32 60 25z m-7043 -47 c-3 -8 -6 -5 -6
6 -1 11 2 17 5 13 3 -3 4 -12 1 -19z m4118 -40 c-29 -88 -77 -209 -81 -205 -2
2 12 48 32 103 20 54 40 114 46 132 5 19 12 31 15 29 3 -3 -3 -30 -12 -59z
m-4154 -130 c-16 -73 -37 -171 -46 -218 -10 -47 -26 -104 -37 -127 -43 -92
-180 -181 -344 -224 -99 -25 -300 -28 -418 -5 -99 19 -109 27 -24 19 62 -5 65
-5 72 18 4 13 8 74 9 135 2 75 7 116 15 127 8 9 11 21 7 27 -4 6 1 43 10 81
13 50 29 85 57 120 21 27 43 47 49 44 5 -4 12 0 15 8 5 14 48 32 66 29 3 -1
12 5 18 13 7 8 19 15 26 15 8 0 11 6 8 15 -4 9 0 15 10 15 9 0 16 5 16 11 0 8
21 10 65 7 35 -2 60 -1 54 3 -14 8 27 19 66 17 26 -1 25 -2 -10 -8 -26 -5 -5
-7 60 -5 146 4 185 -21 179 -114 -1 -22 1 -29 7 -20 6 10 9 7 9 -11 l1 -25 15
25 c9 14 13 17 10 7 -4 -11 -9 -30 -12 -43 -3 -13 -10 -22 -14 -19 -5 3 -12 0
-16 -6 -4 -8 -3 -9 4 -5 8 5 12 -4 13 -26 l1 -33 7 35 c4 19 12 44 18 55 6 11
21 64 34 117 35 143 35 101 0 -54z m-1343 77 c0 -16 -2 -15 -8 5 -4 14 -8 34
-8 45 0 16 2 15 8 -5 4 -14 8 -34 8 -45z m8252 50 c0 -2 -22 -16 -50 -30 -27
-14 -50 -23 -50 -20 0 2 21 16 48 29 53 28 52 28 52 21z m-7447 -32 c-7 -2
-19 -2 -25 0 -7 3 -2 5 12 5 14 0 19 -2 13 -5z m-796 -65 c-3 -8 -6 -5 -6 6
-1 11 2 17 5 13 3 -3 4 -12 1 -19z m8008 -28 c-3 -5 -12 -10 -18 -10 -7 0 -6
4 3 10 19 12 23 12 15 0z m-7985 -54 c0 -26 -6 -18 -14 19 -5 22 -4 26 4 15 5
-8 10 -24 10 -34z m6480 34 c-8 -5 -22 -9 -30 -9 -10 0 -8 3 5 9 27 12 43 12
25 0z m-110 -20 c0 -5 -4 -10 -10 -10 -5 0 -10 5 -10 10 0 6 5 10 10 10 6 0
10 -4 10 -10z m-103 -26 c-3 -3 -12 -4 -19 -1 -8 3 -5 6 6 6 11 1 17 -2 13 -5z
m-6260 -36 c-3 -8 -6 -5 -6 6 -1 11 2 17 5 13 3 -3 4 -12 1 -19z m6517 10 c8
13 132 4 176 -13 19 -7 143 -77 275 -155 132 -78 283 -167 335 -197 52 -31
166 -98 252 -149 87 -52 163 -94 169 -94 7 0 62 29 123 63 61 35 147 83 191
107 44 24 120 65 169 92 113 63 109 61 190 98 63 29 73 31 108 21 81 -25 139
-122 137 -230 l-1 -56 -9 57 c-4 32 -13 67 -19 78 -11 20 -12 20 -48 -10 -20
-16 -42 -30 -49 -30 -7 0 -13 -9 -13 -19 0 -18 -27 -35 -46 -29 -18 4 -54 -14
-48 -24 4 -6 2 -8 -4 -4 -14 9 -84 -33 -75 -47 3 -6 1 -7 -5 -3 -6 4 -28 -2
-49 -12 -88 -43 -449 -246 -466 -262 -16 -15 -17 -23 -8 -56 14 -51 14 -104 0
-104 -6 0 -9 7 -6 15 4 8 2 17 -3 20 -6 4 -10 -2 -10 -11 0 -10 -3 -14 -7 -11
-3 4 -13 1 -21 -5 -11 -10 -17 -9 -27 5 -15 21 -34 22 -41 2 -4 -8 -10 -12
-15 -9 -5 3 -9 -3 -9 -13 0 -15 -2 -16 -10 -3 -7 11 -10 5 -11 -25 l-1 -40
-13 51 c-19 79 -84 171 -151 213 l-42 27 79 42 c72 39 127 60 69 27 -29 -16
-19 -20 11 -4 11 5 17 14 14 19 -3 5 11 18 31 28 l37 19 -44 25 c-24 14 -78
44 -119 68 -41 23 -99 60 -129 82 -29 23 -144 94 -255 160 -166 99 -206 118
-232 114 -17 -2 -75 -29 -129 -60 -132 -74 -141 -75 -222 -34 -85 43 -215 129
-221 146 -3 10 7 11 45 7 40 -6 52 -3 76 15 15 12 27 29 27 38 0 13 -2 13 -15
-4 -17 -22 -20 -12 -4 17 5 11 14 17 19 14 4 -3 11 9 15 26 5 21 10 27 15 19
4 -7 10 -8 14 -2z m-112 -28 c19 0 28 -5 28 -16 0 -8 -5 -12 -10 -9 -6 4 -17
2 -24 -4 -9 -8 -21 -8 -37 -2 -23 9 -23 10 6 11 28 1 29 2 8 10 -13 5 -23 15
-23 22 0 9 3 9 12 0 7 -7 25 -12 40 -12z m-6395 -22 c-3 -8 -6 -5 -6 6 -1 11
2 17 5 13 3 -3 4 -12 1 -19z m7533 -41 c56 1 70 -1 56 -9 -30 -17 -125 -21
-173 -7 -56 15 -56 32 0 22 23 -5 76 -7 117 -6z m-7513 -69 c-3 -8 -6 -5 -6 6
-1 11 2 17 5 13 3 -3 4 -12 1 -19z m5373 -412 c0 -18 -6 -38 -12 -43 -16 -12
-288 -153 -566 -293 -112 -56 -202 -103 -200 -106 2 -2 116 53 253 121 138 69
254 125 258 125 5 0 6 -4 3 -9 -4 -5 4 -7 16 -3 15 4 19 2 13 -7 -5 -10 -2
-11 12 -7 11 4 30 3 42 -2 20 -7 21 -9 7 -21 -14 -11 -16 -11 -16 3 0 24 -17
19 -50 -15 -25 -27 -30 -29 -31 -13 0 11 -3 13 -6 6 -2 -6 -9 -10 -14 -6 -5 3
-9 2 -8 -3 3 -19 -2 -34 -10 -29 -5 4 -7 -2 -4 -12 2 -10 -5 -26 -16 -36 -12
-11 -21 -28 -21 -39 0 -10 -11 -28 -25 -39 -14 -11 -24 -25 -22 -32 2 -6 -3
-24 -11 -41 -13 -23 -17 -26 -20 -13 -3 14 -8 16 -22 8 -29 -16 -18 -45 16
-43 22 2 25 0 14 -7 -8 -5 -26 -10 -40 -11 l-25 -1 25 -9 c21 -7 18 -8 -16 -6
-32 2 -40 -1 -36 -12 4 -10 18 -12 59 -8 33 3 51 2 47 -4 -3 -5 -33 -9 -67 -8
-57 1 -184 -18 -175 -27 2 -2 35 2 73 8 273 42 527 -85 527 -264 0 -98 -94
-179 -254 -220 -146 -37 -357 -13 -465 53 -97 60 -141 162 -109 254 4 11 0 7
-9 -8 -19 -33 -26 -115 -11 -120 7 -3 6 -9 -3 -18 -9 -9 -11 -9 -7 -1 5 8 0
12 -13 12 -12 0 -21 -5 -21 -11 0 -5 -4 -7 -10 -4 -5 3 -10 -1 -10 -10 0 -9
-9 -19 -20 -22 -19 -5 -83 -114 -74 -127 2 -3 -2 -2 -8 4 -18 15 -36 12 -34
-5 0 -9 -11 -23 -26 -32 -24 -15 -30 -15 -53 -3 l-26 14 28 15 c16 8 23 16 16
18 -7 3 -20 -3 -29 -11 -19 -20 -33 -20 -40 -3 -3 8 -10 14 -17 14 -7 0 -37
15 -67 33 -30 17 -71 41 -90 53 -19 11 -30 15 -25 9 6 -5 69 -46 140 -90 72
-44 216 -132 320 -197 244 -152 260 -159 344 -153 50 4 91 17 169 52 56 25
108 46 116 46 20 0 29 -31 14 -46 -29 -28 -148 -84 -218 -103 -89 -25 -145
-26 -224 -6 -71 19 -86 13 -19 -6 51 -15 196 -19 253 -7 34 7 33 7 -10 -15
-37 -18 -62 -22 -140 -22 -91 0 -98 2 -180 42 -47 23 -123 65 -170 94 -47 29
-166 102 -265 162 -253 155 -315 195 -352 230 -18 17 -33 26 -33 20 0 -18 52
-64 125 -111 158 -101 205 -133 205 -138 0 -8 -38 15 -170 101 -135 89 -161
112 -166 147 -2 13 -9 42 -16 65 -15 52 0 108 38 147 15 14 292 159 617 322
325 163 687 345 804 405 117 60 220 109 228 109 10 0 15 -10 15 -34z m-5385
-171 c314 -162 341 -178 415 -235 41 -31 172 -121 290 -198 118 -77 346 -227
507 -334 161 -106 341 -224 400 -263 164 -105 634 -414 668 -438 132 -94 292
-200 302 -200 7 0 11 -2 8 -5 -2 -2 2 -11 10 -19 8 -8 15 -26 14 -41 0 -15 -3
-21 -6 -14 -9 22 -41 13 -74 -20 -22 -23 -29 -26 -21 -11 20 37 12 39 -18 4
-17 -20 -33 -30 -40 -26 -9 6 -9 10 1 16 12 8 11 11 -1 19 -8 5 -55 38 -105
74 -49 37 -96 64 -104 61 -10 -4 -12 2 -9 25 3 21 0 30 -9 30 -7 0 -39 17 -71
38 -31 20 -64 42 -73 47 -29 18 -234 154 -259 172 -73 52 -130 88 -170 111
-25 13 -54 32 -65 42 -25 22 -171 122 -211 144 -28 16 -44 26 -110 70 -143 96
-237 156 -244 156 -5 0 -10 3 -12 8 -4 8 -200 140 -240 161 -16 8 -28 18 -28
23 0 4 -6 8 -14 8 -7 0 -20 7 -27 16 -12 15 -43 31 -62 32 -5 0 -19 12 -32 26
-13 14 -29 26 -35 26 -5 0 -10 4 -10 10 0 5 -3 9 -7 8 -10 -3 -59 29 -91 59
-13 12 -45 32 -71 44 -25 13 -48 25 -51 28 -16 19 -85 -17 -95 -50 -6 -19 -7
-19 -37 -2 -64 38 -79 59 -75 105 4 35 0 47 -18 64 -12 11 -28 31 -34 43 -7
12 -16 19 -22 16 -5 -4 -9 1 -9 11 0 13 -3 14 -15 4 -16 -13 -8 -34 29 -77 11
-13 17 -25 15 -28 -3 -2 -22 17 -42 43 -20 26 -59 72 -87 102 -58 63 -140 173
-140 188 0 6 -6 13 -12 16 -7 3 -2 3 12 0 14 -3 97 -43 185 -89z m5289 54 c-4
-7 0 -9 13 -5 11 3 27 -1 39 -10 19 -15 19 -15 -1 -6 -11 6 -32 9 -47 7 -16
-2 -31 2 -35 7 -3 7 -1 8 5 4 7 -4 12 -2 12 3 0 6 5 11 11 11 5 0 7 -5 3 -11z
m-60 -44 c-3 -8 -14 -17 -25 -20 -11 -4 -17 -11 -14 -16 7 -10 -10 -11 -43 -3
-21 6 -21 7 -5 20 10 7 24 14 31 14 7 0 20 7 29 15 17 18 35 11 27 -10z
m-4447 -39 c49 -25 76 -33 198 -61 39 -9 79 -24 90 -34 21 -19 164 -116 320
-217 50 -32 207 -135 350 -229 861 -566 1099 -726 1148 -772 15 -15 27 -33 27
-41 0 -11 -3 -10 -16 2 -21 21 -21 21 -55 -15 -30 -32 -31 -11 -1 24 21 24 -1
21 -23 -3 -18 -20 -19 -20 -39 -2 -53 48 -176 122 -193 116 -13 -4 -15 -3 -5
4 11 7 5 15 -24 33 -50 30 -65 32 -71 8 -5 -20 -23 -27 -23 -9 0 6 -6 10 -14
10 -8 0 -17 7 -20 16 -4 11 -13 14 -27 11 -12 -3 -18 -3 -15 0 7 7 -22 29 -96
73 -32 19 -58 38 -58 42 0 4 -5 8 -12 8 -6 0 -25 11 -43 24 -18 14 -53 36 -78
50 -25 14 -60 39 -79 56 -18 16 -37 30 -42 30 -5 0 -23 10 -40 23 -17 12 -48
31 -68 41 -21 11 -38 23 -38 28 0 4 -6 8 -14 8 -8 0 -16 4 -18 8 -1 5 -31 25
-65 47 -35 21 -63 41 -63 44 0 4 -16 13 -36 20 -20 7 -51 27 -70 45 -18 17
-86 63 -149 100 -64 38 -118 73 -121 78 -8 13 -101 58 -107 52 -3 -3 -8 0 -13
7 -4 8 -3 10 4 5 7 -4 12 -5 12 -2 0 3 -12 12 -27 20 -16 8 -43 27 -62 44 -20
17 -41 28 -49 24 -10 -3 -13 -1 -8 6 16 26 -45 38 -67 14 -14 -15 -15 -25 -6
-56 20 -73 120 -158 306 -259 55 -30 110 -61 121 -68 35 -22 56 -89 32 -104
-6 -4 -7 6 -4 25 5 22 3 30 -8 30 -8 0 -52 23 -98 50 -46 28 -91 48 -99 46
-19 -5 -107 57 -104 73 2 5 -3 8 -10 5 -19 -7 -131 99 -161 152 -32 57 -44
113 -26 124 7 4 9 13 5 20 -6 9 -9 9 -16 -1 -6 -10 -9 -8 -9 9 0 13 -4 21 -10
17 -5 -3 -17 6 -26 20 -16 25 -16 80 1 119 6 13 5 17 -3 12 -14 -8 -67 14
-111 48 -43 32 -36 33 26 2z m6640 -27 c38 -14 81 -56 104 -101 23 -45 23 -48
4 -48 -9 0 -18 -7 -21 -15 -3 -8 -16 -17 -27 -21 -12 -4 -83 -41 -157 -82
-203 -113 -384 -212 -387 -212 -2 0 -20 -10 -41 -23 -20 -13 -66 -40 -102 -59
-36 -20 -128 -71 -205 -113 -77 -43 -165 -91 -195 -107 -30 -17 -59 -34 -65
-38 -5 -4 -39 -23 -75 -42 -66 -36 -367 -202 -430 -238 -19 -11 -86 -48 -149
-83 -127 -69 -185 -120 -202 -177 -11 -36 -44 -60 -51 -38 -4 12 -58 0 -58
-13 0 -5 5 -9 10 -9 6 0 10 -3 10 -7 0 -5 -20 -9 -45 -9 -49 -2 -46 9 10 39
17 9 25 16 18 17 -7 0 -47 -21 -90 -46 -43 -25 -104 -59 -135 -75 -55 -28 -88
-60 -88 -87 0 -8 5 -10 13 -6 7 5 6 0 -3 -11 -14 -17 -15 -15 -18 23 -3 46
-37 82 -78 82 -12 0 -26 4 -29 10 -3 5 -2 10 3 10 4 0 62 60 128 132 65 73
131 145 146 159 15 14 127 79 250 144 123 65 257 137 298 160 41 23 163 91
270 150 107 59 310 172 450 250 718 402 888 495 901 495 4 0 20 -5 36 -11z
m-2277 -83 c0 -2 -7 -6 -15 -10 -8 -3 -15 -1 -15 4 0 6 7 10 15 10 8 0 15 -2
15 -4z m2545 -86 c3 -5 1 -10 -4 -10 -6 0 -11 5 -11 10 0 6 2 10 4 10 3 0 8
-4 11 -10z m-6688 -75 c0 -8 -4 -12 -9 -9 -5 3 -6 10 -3 15 9 13 12 11 12 -6z
m2186 -529 c30 -14 72 -45 92 -67 35 -39 36 -43 34 -107 l-3 -67 115 -68 c63
-38 128 -77 144 -86 17 -9 50 -30 75 -46 49 -31 148 -89 193 -112 33 -18 35
-39 5 -64 -32 -26 -51 -24 -111 15 -28 18 -113 71 -187 116 -74 46 -162 100
-195 121 -33 21 -102 63 -152 94 -51 31 -97 64 -103 74 -10 20 -59 41 -95 41
-12 0 -34 -9 -49 -21 -29 -23 -31 -17 -15 30 13 37 41 47 102 36 23 -4 53 -7
66 -7 18 0 20 -2 10 -9 -13 -8 -6 -13 14 -10 4 0 6 -2 5 -7 -4 -12 46 -73 78
-96 107 -72 179 -118 230 -147 33 -17 70 -40 84 -49 14 -9 36 -23 50 -29 l25
-12 -25 20 c-28 23 -179 124 -310 207 -71 44 -80 54 -58 54 37 0 50 27 33 65
-22 48 -39 63 -99 91 -100 45 -235 31 -302 -32 -43 -40 -44 -72 -4 -117 47
-54 118 -79 228 -82 51 -2 96 -6 99 -9 12 -12 -26 -35 -68 -41 -98 -15 -269
41 -323 106 -14 16 -30 46 -35 66 -20 71 48 149 149 172 106 25 225 16 303
-23z m1314 -18 c-16 -10 -29 5 -21 26 6 15 7 15 19 -1 10 -13 10 -20 2 -25z
m-164 -184 c15 -5 16 -9 5 -15 -19 -12 -30 -11 -22 3 5 7 2 9 -7 6 -8 -3 -23
0 -33 8 -18 12 -17 13 10 10 16 -3 37 -8 47 -12z m32 -34 c-3 -5 -12 -10 -18
-10 -7 0 -6 4 3 10 19 12 23 12 15 0z m-215 -92 c0 -4 -11 -2 -25 4 -14 6 -25
15 -25 19 0 4 11 2 25 -4 14 -7 25 -15 25 -19z m-768 -84 c51 -31 108 -65 126
-75 18 -11 45 -28 60 -38 15 -10 64 -40 109 -66 46 -26 85 -51 88 -56 3 -4 -8
-15 -24 -24 -35 -18 -74 -8 -90 24 -11 20 -46 37 -69 33 -6 -2 -22 13 -33 33
-19 32 -26 36 -58 33 -30 -3 -37 1 -48 23 -20 42 -41 55 -64 41 -25 -16 -29
-15 -29 5 0 9 -7 25 -17 35 -18 20 -53 25 -53 7 0 -8 -5 -8 -15 1 -8 7 -15 18
-15 25 0 7 -13 25 -30 38 -32 28 -38 43 -17 50 15 5 59 -17 179 -89z m814 48
c-4 -3 -14 2 -24 12 -16 18 -16 18 6 6 13 -6 21 -14 18 -18z m34 -12 c0 -5 -2
-10 -4 -10 -3 0 -8 5 -11 10 -3 6 -1 10 4 10 6 0 11 -4 11 -10z m44 -25 c3 -9
0 -12 -9 -9 -7 3 -16 12 -19 19 -3 9 0 12 9 9 7 -3 16 -12 19 -19z m-1575
-104 c13 -12 20 -21 14 -21 -5 0 -20 9 -32 19 -12 11 -32 27 -44 35 -21 16
-20 16 8 2 17 -8 41 -24 54 -35z m1686 31 c-3 -3 -11 0 -18 7 -9 10 -8 11 6 5
10 -3 15 -9 12 -12z m1070 -172 c3 -5 -1 -10 -10 -10 -9 0 -13 5 -10 10 3 6 8
10 10 10 2 0 7 -4 10 -10z m-185 -28 c0 -8 -64 -42 -78 -42 -4 0 11 11 33 24
48 29 45 28 45 18z m113 -9 c-7 -2 -19 -2 -25 0 -7 3 -2 5 12 5 14 0 19 -2 13
-5z m-13 -17 c0 -3 -4 -8 -10 -11 -5 -3 -10 -1 -10 4 0 6 5 11 10 11 6 0 10
-2 10 -4z m-112 -25 c11 -7 10 -9 -3 -14 -9 -4 -13 -3 -10 2 3 5 -3 12 -12 14
-13 3 -14 5 -3 6 8 0 21 -3 28 -8z m-54 -14 c-3 -9 -16 -12 -35 -9 -22 3 -27
7 -18 13 22 14 59 11 53 -4z m-214 -5 c0 -5 -12 -14 -27 -21 -16 -7 -65 -38
-111 -68 -45 -31 -85 -54 -88 -51 -4 5 96 90 156 130 26 19 70 24 70 10z
m-2641 -181 c62 -40 110 -75 107 -78 -5 -6 -182 105 -213 134 -12 12 -23 30
-22 40 0 15 1 15 9 -3 4 -11 58 -53 119 -93z m2402 71 c-7 -2 -18 1 -23 6 -8
8 -4 9 13 5 13 -4 18 -8 10 -11z m1319 -43 c0 -5 -18 -9 -40 -9 -26 0 -40 5
-40 13 0 9 12 11 40 9 22 -2 40 -8 40 -13z m-1313 -25 c-3 -3 -12 -4 -19 -1
-8 3 -5 6 6 6 11 1 17 -2 13 -5z m-22 -32 c-3 -3 -11 0 -18 7 -9 10 -8 11 6 5
10 -3 15 -9 12 -12z m1655 -17 c0 -11 -11 -15 -40 -15 -29 0 -40 4 -40 15 0
11 11 15 40 15 29 0 40 -4 40 -15z m-1653 -1 c-3 -3 -12 -4 -19 -1 -8 3 -5 6
6 6 11 1 17 -2 13 -5z m-347 -24 c0 -5 -18 -10 -40 -10 -22 0 -40 5 -40 10 0
6 18 10 40 10 22 0 40 -4 40 -10z m1263 -27 c-7 -2 -21 -2 -30 0 -10 3 -4 5
12 5 17 0 24 -2 18 -5z m2097 -113 c0 -5 -18 -10 -40 -10 -22 0 -40 5 -40 10
0 6 18 10 40 10 22 0 40 -4 40 -10z"/>
<path d="M1820 8601 c0 -6 4 -13 10 -16 6 -3 7 1 4 9 -7 18 -14 21 -14 7z"/>
<path d="M2441 7834 c0 -11 3 -14 6 -6 3 7 2 16 -1 19 -3 4 -6 -2 -5 -13z"/>
<path d="M7335 9004 c-98 -20 -126 -26 -122 -30 5 -6 166 22 174 30 7 6 -19 6
-52 0z"/>
<path d="M7401 8946 c2 -2 29 -6 59 -9 36 -4 46 -3 30 3 -25 8 -97 13 -89 6z"/>
<path d="M7891 8464 c0 -11 3 -14 6 -6 3 7 2 16 -1 19 -3 4 -6 -2 -5 -13z"/>
<path d="M3050 8514 c0 -16 -2 -17 -10 -4 -5 8 -10 11 -10 5 0 -5 4 -16 9 -24
7 -11 10 -9 16 8 4 13 4 25 1 28 -3 4 -6 -2 -6 -13z"/>
<path d="M5128 8563 c7 -3 16 -2 19 1 4 3 -2 6 -13 5 -11 0 -14 -3 -6 -6z"/>
<path d="M4669 7933 c-13 -17 -13 -17 6 -3 11 8 22 16 24 17 2 2 0 3 -6 3 -6
0 -17 -8 -24 -17z"/>
<path d="M4620 7910 c-9 -6 -10 -10 -3 -10 6 0 15 5 18 10 8 12 4 12 -15 0z"/>
<path d="M7450 8570 c58 -8 144 -42 157 -63 4 -7 17 -18 28 -26 11 -7 -1 7
-26 31 -51 48 -103 69 -170 67 l-44 -2 55 -7z"/>
<path d="M7223 8478 c-15 -19 -24 -78 -13 -78 12 0 40 53 40 75 0 18 -14 20
-27 3z"/>
<path d="M7556 8474 c-3 -9 -6 -25 -6 -36 0 -20 1 -21 20 -3 23 21 27 55 6 55
-8 0 -17 -7 -20 -16z"/>
<path d="M7049 8353 c-13 -16 -12 -17 4 -4 9 7 17 15 17 17 0 8 -8 3 -21 -13z"/>
<path d="M7166 8345 c-9 -10 -14 -26 -11 -43 14 -81 33 -304 28 -338 -4 -30 0
-45 15 -63 l19 -25 37 22 c27 16 77 27 195 42 162 20 211 32 211 49 0 24 -86
33 -242 26 -87 -4 -158 -4 -158 0 0 8 -28 243 -36 303 -6 46 -28 56 -58 27z"/>
<path d="M7629 8164 c-5 -15 -7 -29 -4 -32 7 -8 45 29 45 45 0 23 -30 14 -41
-13z"/>
<path d="M6925 8169 c-4 -6 -5 -12 -2 -15 2 -3 7 2 10 11 7 17 1 20 -8 4z"/>
<path d="M6853 7813 c-7 -2 -13 -9 -13 -14 0 -6 5 -7 12 -3 8 5 9 2 5 -10 -5
-12 -3 -16 5 -14 7 3 14 14 16 26 3 22 -2 25 -25 15z"/>
<path d="M7457 7652 c-10 -10 -17 -27 -17 -38 1 -16 4 -15 25 9 25 29 32 47
17 47 -5 0 -16 -8 -25 -18z"/>
<path d="M6944 7485 c-16 -24 -14 -55 4 -55 12 0 32 69 22 75 -5 3 -17 -6 -26
-20z"/>
<path d="M7230 7484 c-6 -14 -10 -32 -10 -41 0 -14 3 -14 20 2 21 19 28 65 10
65 -6 0 -15 -12 -20 -26z"/>
<path d="M4603 7253 c9 -2 23 -2 30 0 6 3 -1 5 -18 5 -16 0 -22 -2 -12 -5z"/>
<path d="M4504 7225 c-25 -19 -14 -19 22 0 16 8 22 15 13 15 -8 0 -24 -7 -35
-15z"/>
<path d="M4346 7003 c-6 -14 -5 -15 5 -6 7 7 10 15 7 18 -3 3 -9 -2 -12 -12z"/>
<path d="M4295 6909 c-4 -6 -5 -12 -2 -15 2 -3 7 2 10 11 7 17 1 20 -8 4z"/>
<path d="M5400 6753 c-96 -47 -249 -120 -340 -163 -384 -180 -371 -173 -400
-230 -29 -57 -26 -121 7 -160 23 -28 31 -31 62 -27 36 5 452 196 761 350 l165
82 29 57 c32 65 31 107 -5 152 -36 46 -80 36 -279 -61z m283 -73 c-13 -50 -79
-94 -278 -185 -33 -15 -105 -49 -160 -75 -93 -44 -124 -59 -275 -127 -30 -14
-92 -43 -137 -64 -76 -37 -136 -49 -147 -31 -8 14 11 35 25 28 8 -4 6 -1 -3 7
-10 8 -18 20 -18 28 0 10 3 10 11 2 12 -12 47 -2 124 33 22 10 25 14 11 14
-11 0 -17 3 -13 6 3 4 19 2 36 -4 25 -9 29 -8 24 4 -4 10 17 24 71 49 42 19
82 33 88 31 7 -1 10 -1 6 1 -12 7 -9 23 3 23 6 0 38 14 71 30 32 17 70 30 83
30 14 0 25 4 25 9 0 5 11 12 25 15 14 4 24 10 21 14 -3 5 15 14 40 20 24 7 44
16 44 21 0 16 92 52 137 54 22 1 36 5 30 9 -7 4 0 8 16 8 16 0 26 4 23 8 -3 5
11 15 30 24 18 9 34 12 34 7 0 -5 5 -9 10 -9 6 0 10 9 10 19 0 13 6 19 19 18
11 -1 17 -7 14 -17z m-998 -451 c-4 -5 -12 -9 -18 -8 -9 0 -8 2 1 6 6 2 9 10
6 15 -4 7 -2 8 5 4 6 -4 9 -12 6 -17z"/>
<path d="M5616 6633 c-6 -14 -5 -15 5 -6 7 7 10 15 7 18 -3 3 -9 -2 -12 -12z"/>
<path d="M4200 6739 c-7 -11 -10 -23 -7 -25 2 -2 9 7 15 21 14 30 7 33 -8 4z"/>
<path d="M4596 6703 c-6 -14 -5 -15 5 -6 7 7 10 15 7 18 -3 3 -9 -2 -12 -12z"/>
<path d="M4166 6673 c-6 -14 -5 -15 5 -6 7 7 10 15 7 18 -3 3 -9 -2 -12 -12z"/>
<path d="M4145 6639 c-4 -6 -5 -12 -2 -15 2 -3 7 2 10 11 7 17 1 20 -8 4z"/>
<path d="M4097 6558 c-15 -28 -25 -53 -23 -55 3 -3 17 18 31 47 14 29 25 54
23 56 -2 2 -16 -20 -31 -48z"/>
<path d="M4048 6468 c-22 -34 -42 -74 -31 -63 14 15 55 85 50 85 -3 0 -11 -10
-19 -22z"/>
<path d="M4430 6410 c-6 -11 -8 -20 -6 -20 3 0 10 9 16 20 6 11 8 20 6 20 -3
0 -10 -9 -16 -20z"/>
<path d="M3599 6366 c-72 -25 -120 -77 -173 -186 -26 -56 -31 -76 -31 -140 1
-120 21 -145 218 -276 162 -107 187 -118 253 -111 106 11 198 83 268 213 67
121 139 249 153 271 9 13 13 23 9 23 -6 0 -94 -149 -152 -258 -82 -155 -170
-226 -279 -227 -46 0 -69 6 -100 24 -82 49 -115 74 -115 88 0 8 -6 13 -12 12
-34 -6 -178 95 -178 124 0 4 7 1 16 -7 8 -9 20 -13 26 -10 6 4 5 10 -3 15 -10
6 -10 9 -2 9 16 0 26 -17 13 -25 -15 -10 -12 -25 8 -32 9 -3 25 -13 35 -21 22
-19 34 -8 16 15 -13 17 -13 17 4 4 11 -9 16 -22 13 -34 -3 -14 -2 -17 6 -9 8
8 15 7 26 -4 8 -8 17 -12 20 -9 4 3 0 10 -7 14 -9 6 -5 9 13 9 15 0 29 -4 32
-9 3 -5 -2 -9 -11 -9 -9 0 -14 -4 -11 -8 8 -14 76 -1 76 14 0 8 -4 14 -10 14
-5 0 -10 24 -9 53 0 28 3 46 6 39 4 -10 9 -10 23 3 18 16 19 15 16 -37 -2 -29
-1 -36 1 -15 2 20 8 37 13 37 4 0 11 39 15 88 5 55 13 93 23 105 21 24 32 21
32 -8 0 -14 5 -25 11 -25 8 0 9 11 5 31 -3 17 -6 41 -7 53 0 11 -3 15 -6 9 -2
-7 -12 -13 -20 -13 -15 0 -15 2 -1 18 9 9 18 26 21 37 4 15 5 14 6 -7 0 -15 6
-30 12 -33 17 -11 23 3 9 20 -7 9 -9 19 -5 23 4 4 10 1 12 -5 6 -15 29 -17 38
-3 3 5 0 7 -9 4 -9 -3 -19 3 -26 16 -6 12 -17 20 -23 17 -7 -2 -28 6 -47 19
-19 13 -31 24 -26 24 4 0 21 -9 37 -21 48 -34 32 -12 -22 31 -37 29 -57 39
-73 35 -16 -5 -18 -4 -6 4 12 8 8 13 -22 26 -44 18 -52 18 -99 1z m161 -276
c0 -5 -5 -10 -11 -10 -5 0 -7 5 -4 10 3 6 8 10 11 10 2 0 4 -4 4 -10z m-311
-145 c0 -5 -6 1 -14 15 -8 14 -14 30 -14 35 0 6 6 -1 14 -15 8 -14 14 -29 14
-35z"/>
<path d="M3977 6346 c-14 -31 -14 -34 0 -32 10 2 17 15 19 34 5 41 2 40 -19
-2z"/>
<path d="M3935 6268 l-16 -33 20 25 c20 24 26 40 16 40 -2 0 -12 -15 -20 -32z"/>
<path d="M4330 6235 c-7 -9 -11 -17 -9 -20 3 -2 10 5 17 15 14 24 10 26 -8 5z"/>
<path d="M3905 6180 c-3 -5 -1 -10 4 -10 6 0 11 5 11 10 0 6 -2 10 -4 10 -3 0
-8 -4 -11 -10z"/>
<path d="M5625 6156 c-108 -50 -1056 -491 -1155 -537 -120 -57 -153 -84 -176
-146 -29 -76 5 -163 64 -163 13 0 87 30 165 66 78 37 169 79 202 94 33 15 168
78 300 140 132 62 337 157 455 212 118 55 227 109 242 119 72 52 94 161 42
213 -33 32 -71 33 -139 2z m135 -145 c0 -18 -75 -74 -134 -101 -58 -26 -168
-77 -301 -140 -33 -15 -93 -43 -132 -62 -50 -23 -73 -30 -73 -21 0 7 7 13 15
13 8 0 15 5 15 10 0 6 11 10 25 10 14 0 25 4 25 9 0 4 25 16 55 26 30 9 55 21
55 25 0 5 14 11 30 15 27 6 29 9 18 23 -10 14 -10 15 2 5 8 -7 21 -13 30 -13
13 0 13 2 0 11 -13 9 -12 10 3 5 9 -3 17 -1 17 4 0 6 6 10 13 10 21 0 106 47
99 55 -4 5 1 5 11 2 25 -9 43 2 26 15 -10 7 -9 8 5 4 21 -7 91 23 124 54 12
12 26 19 31 16 5 -3 11 3 14 14 5 20 27 29 27 11z m-670 -343 c-14 -5 -33 -14
-42 -19 -11 -6 -18 -6 -18 0 0 5 12 14 28 19 36 14 64 14 32 0z m-72 -33 c-15
-15 -338 -168 -344 -163 -2 2 28 19 67 36 45 21 67 36 63 44 -4 7 -3 8 4 4 10
-6 136 45 182 74 16 9 37 13 28 5z m-361 -171 c-3 -3 -12 -4 -19 -1 -8 3 -5 6
6 6 11 1 17 -2 13 -5z m-47 -24 c-8 -5 -19 -10 -25 -10 -5 0 -3 5 5 10 8 5 20
10 25 10 6 0 3 -5 -5 -10z m-90 -40 c-8 -5 -19 -10 -25 -10 -5 0 -3 5 5 10 8
5 20 10 25 10 6 0 3 -5 -5 -10z m-85 -36 c-27 -13 -54 -22 -60 -20 -5 2 -2 5
8 5 9 1 17 6 17 11 0 6 9 10 19 10 11 0 23 5 26 10 3 6 14 10 23 9 9 0 -5 -11
-33 -25z"/>
<path d="M3732 5747 c-8 -10 -6 -13 7 -13 10 0 18 6 18 13 0 7 -4 13 -7 13 -4
0 -12 -6 -18 -13z"/>
<path d="M5680 5556 c-52 -23 -207 -96 -345 -161 -137 -64 -370 -173 -517
-241 -400 -185 -423 -198 -455 -245 -17 -26 -28 -58 -31 -93 -4 -45 -1 -56 23
-84 40 -47 67 -43 240 40 82 39 228 109 324 155 95 46 175 83 177 83 1 0 40
18 86 39 46 21 205 96 353 165 226 105 276 133 307 167 63 69 62 171 -3 204
-41 22 -54 19 -159 -29z m146 -175 c-17 -19 -97 -61 -113 -61 -15 1 31 30 47
30 9 0 27 11 40 25 27 29 52 34 26 6z m-172 -86 c-25 -19 -38 -19 -22 0 7 8
19 14 27 15 11 0 9 -4 -5 -15z m-48 -24 c-3 -4 -27 -16 -53 -26 -26 -10 -61
-27 -78 -37 -16 -10 -34 -18 -39 -18 -13 0 63 50 77 51 7 0 30 9 52 19 48 22
47 22 41 11z m-199 -97 c-3 -3 -12 -4 -19 -1 -8 3 -5 6 6 6 11 1 17 -2 13 -5z
m-70 -30 c-3 -3 -12 -4 -19 -1 -8 3 -5 6 6 6 11 1 17 -2 13 -5z m-507 -234
c-8 -5 -19 -10 -25 -10 -5 0 -3 5 5 10 8 5 20 10 25 10 6 0 3 -5 -5 -10z m-50
-24 c0 -2 -7 -7 -16 -10 -8 -3 -12 -2 -9 4 6 10 25 14 25 6z m-95 -46 c-3 -5
-12 -10 -18 -10 -7 0 -6 4 3 10 19 12 23 12 15 0z m-85 -40 c-8 -5 -22 -9 -30
-9 -10 0 -8 3 5 9 27 12 43 12 25 0z"/>
<path d="M3765 5387 c-157 -73 -203 -99 -218 -123 -16 -26 -17 -45 -12 -204 9
-235 14 -260 53 -260 28 0 390 172 413 196 26 28 28 54 15 284 -8 145 -20 200
-44 200 -4 0 -97 -42 -207 -93z m125 -33 c0 -8 -19 -13 -24 -6 -3 5 1 9 9 9 8
0 15 -2 15 -3z m55 -4 c5 -8 11 -8 20 0 9 8 14 7 18 -4 4 -9 1 -13 -6 -11 -7
3 -23 -23 -40 -64 -15 -38 -54 -120 -85 -183 -47 -93 -61 -112 -77 -110 -11 2
-53 36 -93 75 -40 40 -70 64 -66 55 3 -10 9 -18 13 -18 4 0 7 -16 8 -35 1 -38
-7 -44 -27 -20 -11 13 -10 14 6 9 15 -6 17 -4 7 6 -6 7 -9 19 -6 28 4 8 2 13
-3 9 -11 -6 -12 83 -1 101 10 15 42 16 69 1 17 -9 25 -6 49 17 25 24 29 25 35
10 4 -9 13 -15 20 -12 17 6 18 -3 3 -41 -18 -48 0 -19 41 66 22 46 37 88 34
93 -4 6 -2 8 3 5 6 -4 18 2 28 13 20 22 40 26 50 10z m52 -65 c-8 -19 -23 -19
-30 -1 -4 10 -1 13 9 9 7 -3 14 1 14 8 0 7 3 10 6 6 4 -3 4 -13 1 -22z m-19
-34 c14 -9 -10 -41 -36 -46 -19 -3 -19 -2 -3 35 9 21 19 34 22 28 4 -6 11 -13
17 -17z m-188 -21 c0 -5 -2 -10 -4 -10 -3 0 -8 5 -11 10 -3 6 -1 10 4 10 6 0
11 -4 11 -10z m210 -37 c2 -21 4 -71 4 -112 l1 -74 -65 -33 c-38 -19 -73 -31
-84 -27 -11 3 -16 1 -12 -5 3 -5 -9 -15 -27 -22 -17 -7 -59 -26 -91 -43 -44
-22 -58 -26 -53 -14 4 10 0 17 -11 20 -9 3 -3 5 14 6 16 0 39 8 50 16 18 15
17 16 -16 10 -33 -5 -33 -4 -10 6 21 10 22 13 7 16 -10 3 -24 -1 -32 -7 -12
-10 -16 -9 -22 6 -3 11 -11 22 -17 26 -18 12 7 28 32 21 14 -3 21 -11 18 -20
-4 -10 -1 -11 12 -4 12 6 23 5 36 -4 20 -15 50 -9 39 8 -4 6 -1 7 6 2 8 -4 18
1 27 14 8 12 26 21 38 21 27 0 51 24 41 40 -3 6 -10 8 -14 6 -3 -3 -7 4 -7 14
0 10 3 17 7 14 4 -2 10 4 13 13 4 15 4 14 3 -2 -2 -23 10 -45 24 -45 5 0 9 8
9 18 0 14 -2 15 -10 2 -8 -12 -10 -10 -9 10 0 14 -2 36 -5 50 -5 19 -4 20 2 6
6 -14 11 -16 16 -8 10 17 26 5 26 -19 0 -10 5 -19 11 -19 6 0 9 9 6 20 -3 11
0 18 7 17 6 -1 12 13 14 33 3 39 11 80 16 80 1 0 4 -17 6 -37z m-413 -60 c-3
-10 -5 -4 -5 12 0 17 2 24 5 18 2 -7 2 -21 0 -30z m-10 -85 c-3 -8 -6 -5 -6 6
-1 11 2 17 5 13 3 -3 4 -12 1 -19z m7 -78 c7 -41 -8 -21 -18 25 -5 19 -4 26 2
20 5 -5 12 -26 16 -45z m141 19 c0 -8 5 -14 12 -14 6 0 15 -3 19 -7 4 -5 1 -8
-7 -8 -8 0 -20 5 -27 12 -7 7 -12 8 -12 4 0 -5 -7 -3 -15 4 -22 18 -18 30 8
26 12 -1 22 -9 22 -17z m-115 -110 c3 0 16 -2 29 -6 22 -6 22 -6 -9 -19 -42
-18 -45 -18 -29 4 11 14 11 15 -1 5 -19 -17 -27 -16 -27 2 0 8 4 15 9 15 4 0
8 8 9 18 0 16 1 16 8 -1 4 -10 9 -18 11 -18z m30 -44 c-33 -19 -50 -18 -26 0
11 8 27 15 35 15 10 -1 7 -6 -9 -15z m-55 -5 c3 -5 2 -10 -4 -10 -5 0 -13 5
-16 10 -3 6 -2 10 4 10 5 0 13 -4 16 -10z"/>
<path d="M3725 5186 c-20 -15 -20 -15 0 -29 23 -17 39 -12 31 10 -5 11 -2 13
10 9 10 -4 14 -1 12 6 -7 19 -31 21 -53 4z m22 -17 c2 -16 -1 -19 -9 -11 -5 5
-7 15 -4 21 10 15 12 14 13 -10z"/>
<path d="M3946 5234 c-4 -9 -4 -19 -1 -22 2 -3 7 3 11 12 4 9 4 19 1 22 -2 3
-7 -3 -11 -12z"/>
<path d="M3947 5009 c7 -7 15 -10 18 -7 3 3 -2 9 -12 12 -14 6 -15 5 -6 -5z"/>
<path d="M3822 4973 c2 -12 -4 -19 -19 -21 -29 -4 -49 -28 -23 -28 10 0 16 4
13 9 -3 5 5 6 18 2 13 -4 20 -4 16 1 -4 4 1 13 12 19 l21 10 -21 13 c-17 11
-20 11 -17 -5z"/>
<path d="M3696 4988 c3 -5 10 -6 15 -3 13 9 11 12 -6 12 -8 0 -12 -4 -9 -9z"/>
<path d="M5800 5064 c-77 -36 -157 -73 -290 -134 -63 -29 -227 -105 -365 -170
-137 -65 -358 -168 -490 -229 -132 -62 -248 -121 -257 -133 -31 -35 -18 -98
19 -98 7 0 102 42 211 94 237 113 354 168 447 211 121 56 206 96 324 151 62
30 115 54 117 54 1 0 86 40 188 89 153 74 188 95 196 117 8 20 7 32 -5 50 -19
30 -27 30 -95 -2z"/>
<path d="M3980 4783 c-17 -7 -103 -46 -262 -121 -140 -66 -141 -68 -139 -225
3 -187 15 -306 34 -324 15 -15 21 -14 78 12 218 97 349 165 364 188 15 23 15
46 6 237 -6 132 -15 217 -22 226 -12 14 -32 17 -59 7z m-4 -123 c8 0 14 -6 15
-12 0 -7 5 -4 10 7 7 16 8 14 4 -10 -6 -27 -94 -230 -142 -325 -30 -58 -53
-52 -142 34 -43 42 -80 73 -84 70 -7 -8 8 50 18 66 13 20 52 9 96 -27 24 -20
34 -26 22 -12 -13 14 -23 29 -23 35 0 5 4 4 8 -1 4 -6 19 -18 34 -27 32 -21
33 -20 81 85 36 78 79 141 85 125 2 -4 10 -8 18 -8z m61 -32 c-3 -7 -5 -2 -5
12 0 14 2 19 5 13 2 -7 2 -19 0 -25z m-157 -8 c6 -11 8 -20 6 -20 -3 0 -10 9
-16 20 -6 11 -8 20 -6 20 3 0 10 -9 16 -20z m150 -34 c0 -2 -9 -6 -20 -9 -11
-3 -18 -1 -14 4 5 9 34 13 34 5z m-191 -90 c-11 -25 -26 -43 -31 -40 -6 4 -6
9 -1 13 4 3 17 23 28 43 27 52 31 40 4 -16z m146 34 c3 -5 1 -10 -4 -10 -6 0
-11 5 -11 10 0 6 2 10 4 10 3 0 8 -4 11 -10z m8 -30 c3 6 4 5 3 -2 -1 -7 -12
-17 -23 -22 -27 -12 -42 -63 -28 -93 12 -27 22 -29 47 -6 17 15 18 15 19 -8 0
-22 1 -22 9 -4 4 11 6 34 4 50 -4 29 -3 29 6 5 8 -21 9 -17 6 19 -3 30 -1 40
4 30 12 -18 10 -128 -2 -151 -10 -21 -30 -24 -22 -4 3 8 0 17 -6 21 -7 4 -9
-2 -6 -20 4 -22 0 -28 -27 -40 -18 -8 -67 -30 -109 -50 -43 -19 -83 -35 -89
-35 -6 0 -26 -9 -45 -20 -19 -13 -35 -17 -39 -11 -8 15 35 40 79 45 45 6 65
20 62 43 -2 9 6 25 16 35 21 21 36 24 19 4 -15 -18 -23 -56 -12 -56 15 0 33
29 26 41 -4 6 3 24 15 41 18 25 19 32 8 46 -8 10 -9 13 -1 9 8 -5 11 0 10 15
-1 13 9 47 22 75 18 39 28 50 37 42 8 -7 14 -6 17 1z m-13 -88 c0 -15 -2 -15
-10 -2 -6 10 -10 11 -10 3 0 -7 -5 -13 -10 -13 -6 0 -5 8 2 19 14 22 28 18 28
-7z m33 -1 c3 -14 1 -18 -9 -14 -15 6 -18 16 -7 26 9 10 10 9 16 -12z m-113
-86 c-7 -9 -15 -13 -17 -11 -7 7 7 26 19 26 6 0 6 -6 -2 -15z m-91 -64 c7 -5
9 -11 5 -14 -5 -3 -15 1 -22 9 -14 16 -5 18 17 5z m71 -1 c0 -5 -5 -10 -11
-10 -5 0 -7 5 -4 10 3 6 8 10 11 10 2 0 4 -4 4 -10z m-82 -30 c8 0 13 -3 9 -6
-10 -10 -48 7 -40 19 5 8 8 8 11 -1 2 -7 11 -12 20 -12z m-114 -78 c3 -5 -1
-9 -9 -9 -8 0 -12 4 -9 9 3 4 7 8 9 8 2 0 6 -4 9 -8z m-47 -27 c0 -20 -4 -19
-17 5 -8 15 -8 18 3 14 8 -3 14 -11 14 -19z"/>
<path d="M3953 4309 c18 -10 18 -11 0 -25 -16 -13 -15 -13 9 -3 22 10 25 15
17 26 -6 7 -19 13 -28 13 -14 -1 -13 -2 2 -11z"/>
<path d="M3920 4300 c12 -8 12 -10 -3 -16 -9 -3 -17 -11 -17 -17 0 -5 9 -2 20
8 20 18 18 35 -3 35 -7 0 -6 -4 3 -10z"/>
<path d="M3091 4684 c0 -11 3 -14 6 -6 3 7 2 16 -1 19 -3 4 -6 -2 -5 -13z"/>
<path d="M5625 4569 c-121 -55 -292 -134 -380 -174 -467 -213 -770 -356 -788
-372 -31 -28 -57 -93 -57 -144 0 -57 33 -99 79 -99 18 0 172 67 383 166 194
91 461 216 593 276 446 204 461 212 489 261 29 50 33 104 11 146 -33 65 -74
57 -330 -60z m242 -135 c-16 -9 -31 -13 -34 -10 -3 3 5 10 18 15 37 15 47 12
16 -5z m-72 -34 c-3 -5 -12 -10 -18 -10 -7 0 -6 4 3 10 19 12 23 12 15 0z
m-165 -74 c0 -2 -7 -7 -16 -10 -8 -3 -12 -2 -9 4 6 10 25 14 25 6z m-133 -62
c-3 -3 -12 -4 -19 -1 -8 3 -5 6 6 6 11 1 17 -2 13 -5z"/>
<path d="M5875 4166 c-16 -8 -68 -32 -115 -53 -47 -22 -184 -86 -305 -143
-251 -117 -735 -341 -874 -406 -110 -51 -127 -65 -136 -105 -8 -34 8 -59 35
-59 10 0 67 23 127 51 136 65 356 168 683 319 698 323 680 314 680 364 0 45
-38 57 -95 32z"/>
<path d="M3915 3950 c-298 -139 -278 -110 -265 -374 9 -188 16 -216 48 -216
19 0 331 144 384 176 20 13 39 32 43 43 3 11 1 106 -5 212 -9 153 -14 197 -27
211 -9 10 -19 18 -22 18 -3 0 -73 -32 -156 -70z m148 -47 c-8 -3 -11 -14 -7
-28 4 -17 -7 -48 -34 -103 -22 -43 -52 -107 -66 -142 -29 -70 -51 -100 -75
-100 -20 0 -171 143 -171 162 0 20 29 58 44 58 7 0 31 -12 52 -26 23 -16 40
-22 42 -15 5 14 32 -12 32 -31 -1 -8 -6 -6 -15 6 -8 11 -15 16 -15 10 0 -5 7
-17 14 -27 13 -17 15 -16 25 16 6 19 9 43 5 53 -4 12 -3 15 3 7 6 -8 21 12 46
61 25 49 46 77 65 86 15 7 34 16 42 20 8 4 17 5 20 2 3 -2 -1 -7 -7 -9z m34
-45 c-2 -13 -4 -3 -4 22 0 25 2 35 4 23 2 -13 2 -33 0 -45z m-21 -83 c-3 -9 0
-15 9 -15 16 0 28 -80 23 -150 -2 -35 -7 -45 -20 -44 -10 1 -15 -2 -13 -7 6
-9 -32 -31 -90 -49 -22 -7 -43 -17 -46 -22 -3 -5 -29 -17 -57 -28 -42 -16 -50
-17 -46 -5 4 8 10 15 15 15 14 0 11 28 -3 33 -7 3 6 2 30 0 24 -3 42 -2 41 3
-3 19 2 30 31 64 16 19 30 39 30 43 0 5 4 5 10 2 7 -4 7 3 0 20 -7 17 -7 24 0
20 6 -3 10 0 10 7 1 8 7 5 16 -7 16 -19 16 -19 12 7 -3 16 1 36 8 45 12 17 13
16 23 -7 5 -14 10 -20 10 -13 1 17 -21 66 -34 75 -9 7 7 12 28 9 4 0 7 4 7 9
0 6 3 10 6 10 3 0 4 -7 0 -15z m-55 -62 c-12 -20 -14 -14 -5 12 4 9 9 14 11
11 3 -2 0 -13 -6 -23z m-246 -123 c-3 -6 1 -13 10 -16 22 -9 38 -41 20 -41 -8
0 -11 7 -7 15 4 11 1 14 -12 9 -9 -4 -15 -3 -11 2 3 5 1 12 -5 16 -10 6 -5 25
6 25 3 0 2 -5 -1 -10z m-20 -160 c-3 -5 -1 -10 5 -10 6 0 8 -4 5 -10 -4 -6
-11 -5 -19 3 -10 9 -11 14 -2 19 15 10 18 10 11 -2z m-50 -40 c-3 -5 -1 -10 6
-10 7 0 10 -2 7 -5 -8 -9 -38 6 -32 16 3 5 10 9 15 9 6 0 7 -4 4 -10z"/>
<path d="M4057 3751 c3 -12 9 -21 14 -21 14 0 11 16 -5 29 -12 10 -13 8 -9 -8z"/>
<path d="M4093 3640 c0 -25 2 -35 4 -22 2 12 2 32 0 45 -2 12 -4 2 -4 -23z"/>
<path d="M4003 3593 c-26 -5 -28 -11 -12 -33 9 -13 10 -12 5 3 -5 15 -2 17 15
12 14 -5 19 -3 15 3 -3 6 0 13 6 15 15 6 2 6 -29 0z"/>
<path d="M3995 3530 c-3 -6 1 -7 9 -4 18 7 21 14 7 14 -6 0 -13 -4 -16 -10z"/>
<path d="M5315 3514 c-324 -152 -628 -294 -675 -316 -47 -21 -99 -50 -117 -63
-67 -52 -83 -176 -27 -223 35 -30 55 -26 182 34 53 25 279 131 502 236 701
328 765 361 796 408 16 25 29 59 32 88 3 40 0 53 -19 75 -49 56 -36 60 -674
-239z m655 93 c0 -2 -12 -14 -27 -28 -15 -13 -22 -17 -15 -8 6 9 8 20 4 24 -4
5 -2 5 5 1 6 -3 14 -2 18 4 6 10 15 14 15 7z"/>
<path d="M4035 3245 c-38 -20 -110 -54 -160 -76 -175 -79 -181 -89 -165 -271
5 -62 10 -138 10 -168 0 -74 17 -105 56 -104 38 2 341 148 376 181 28 27 28
27 27 162 -1 75 -4 174 -7 221 l-7 85 -30 3 c-19 1 -56 -11 -100 -33z m82
-136 c-1 -28 -4 -44 -7 -34 -4 12 -26 -27 -68 -121 -46 -104 -59 -141 -51
-151 8 -9 8 -13 0 -13 -6 0 -11 5 -11 10 0 6 -14 3 -31 -6 -17 -8 -28 -11 -25
-6 8 13 -34 43 -47 35 -6 -3 -7 -2 -4 4 8 13 -47 65 -59 56 -5 -5 -6 -4 -2 1
10 11 -11 38 -23 30 -5 -3 -8 0 -7 8 2 7 -2 12 -9 11 -11 -2 -4 42 12 67 9 14
48 13 63 -2 10 -10 15 -10 23 2 9 13 10 13 6 -1 -3 -10 7 -29 27 -48 l33 -32
37 88 c47 112 78 153 115 153 28 0 29 -1 28 -51z m-167 -130 c-10 -35 -20 -49
-20 -30 0 7 -4 10 -9 7 -11 -7 -36 22 -27 31 3 3 6 1 6 -5 0 -18 38 -9 43 10
3 10 7 18 10 18 3 0 2 -14 -3 -31z m150 -29 c0 -5 -4 -10 -10 -10 -5 0 -10 5
-10 10 0 6 5 10 10 10 6 0 10 -4 10 -10z m-30 -45 c0 -5 -5 -3 -10 5 -5 8 -10
20 -10 25 0 6 5 3 10 -5 5 -8 10 -19 10 -25z m-23 -27 c-3 -8 -6 -5 -6 6 -1
11 2 17 5 13 3 -3 4 -12 1 -19z m90 -55 c3 -7 -8 -19 -22 -29 -20 -13 -29 -14
-38 -5 -9 10 -9 11 3 7 8 -3 24 1 35 10 17 13 18 16 5 25 -12 9 -12 10 -1 7 8
-3 16 -9 18 -15z m-272 -13 c3 -5 1 -10 -4 -10 -6 0 -11 5 -11 10 0 6 2 10 4
10 3 0 8 -4 11 -10z m162 -36 c-3 -3 -12 -4 -19 -1 -8 3 -5 6 6 6 11 1 17 -2
13 -5z m-2 -15 c26 -1 -83 -51 -112 -51 -13 0 -20 -4 -17 -9 3 -5 -3 -6 -12
-2 -11 4 -15 2 -11 -4 4 -6 -10 -17 -32 -27 -22 -8 -42 -20 -46 -26 -3 -5 -13
-10 -22 -10 -9 0 -13 3 -10 7 4 3 1 13 -6 21 -8 11 -8 14 0 9 6 -4 13 -2 15 4
2 6 17 12 33 13 17 2 45 10 63 20 18 9 37 14 42 11 6 -3 11 1 11 9 1 14 3 24
8 41 0 2 18 2 39 -1 20 -2 46 -5 57 -5z"/>
<path d="M3938 2752 c10 -3 10 -7 0 -20 -11 -13 -8 -13 20 2 17 9 32 18 32 21
0 2 -15 3 -32 3 -18 -1 -27 -3 -20 -6z"/>
<path d="M2865 7289 c-4 -6 -5 -12 -2 -15 2 -3 7 2 10 11 7 17 1 20 -8 4z"/>
<path d="M3226 7301 c-19 -21 -12 -28 13 -12 7 5 12 14 9 21 -2 7 -10 4 -22
-9z"/>
<path d="M8668 6893 c7 -3 16 -2 19 1 4 3 -2 6 -13 5 -11 0 -14 -3 -6 -6z"/>
<path d="M8533 6840 c-42 -25 -45 -55 -5 -45 36 9 44 18 40 44 l-3 21 -32 -20z"/>
<path d="M8666 6814 c-10 -26 -7 -44 9 -44 14 0 35 29 35 49 0 17 -37 13 -44
-5z"/>
<path d="M8362 6737 c-39 -41 -20 -64 26 -31 24 17 30 54 9 54 -8 0 -23 -10
-35 -23z"/>
<path d="M8786 6714 c-9 -24 -7 -54 4 -54 14 0 31 37 24 54 -8 20 -20 20 -28
0z"/>
<path d="M8214 6545 c-18 -28 -12 -58 10 -49 16 6 38 59 29 68 -12 11 -23 6
-39 -19z"/>
<path d="M8827 6482 c-10 -10 -17 -24 -17 -30 0 -19 28 -14 40 7 21 41 6 55
-23 23z"/>
<path d="M8135 6229 c-4 -17 -4 -33 0 -37 10 -11 45 37 38 53 -9 26 -31 16
-38 -16z"/>
<path d="M8750 6231 c-12 -24 -13 -41 -1 -41 15 0 41 30 41 46 0 21 -28 17
-40 -5z"/>
<path d="M8636 6048 c-21 -29 -20 -38 3 -38 19 0 31 18 31 46 0 21 -17 17 -34
-8z"/>
<path d="M8187 6043 c-11 -10 -8 -63 3 -63 14 0 32 39 26 56 -6 15 -18 18 -29
7z"/>
<path d="M8494 5962 c-11 -6 -18 -34 -15 -56 2 -17 41 27 41 46 0 19 -8 22
-26 10z"/>
<path d="M8308 5936 c-21 -16 -23 -42 -4 -49 19 -7 36 12 36 40 0 26 -7 28
-32 9z"/>
<path d="M6298 6663 c6 -2 18 -2 25 0 6 3 1 5 -13 5 -14 0 -19 -2 -12 -5z"/>
<path d="M6248 6653 c7 -3 16 -2 19 1 4 3 -2 6 -13 5 -11 0 -14 -3 -6 -6z"/>
<path d="M6719 6443 c-13 -16 -12 -17 4 -4 9 7 17 15 17 17 0 8 -8 3 -21 -13z"/>
<path d="M1210 5365 c-11 -13 -10 -14 4 -9 9 3 16 10 16 15 0 13 -6 11 -20 -6z"/>
<path d="M1380 5350 c0 -5 5 -10 10 -10 6 0 10 5 10 10 0 6 -4 10 -10 10 -5 0
-10 -4 -10 -10z"/>
<path d="M1211 5333 c0 -6 -4 -20 -7 -30 -5 -14 -4 -15 5 -7 7 7 11 20 8 30
-3 11 -5 14 -6 7z"/>
<path d="M7990 5243 c0 -13 160 -92 165 -82 3 5 -9 15 -27 22 -18 8 -44 26
-58 40 -23 25 -80 38 -80 20z"/>
<path d="M1968 5213 c7 -3 16 -2 19 1 4 3 -2 6 -13 5 -11 0 -14 -3 -6 -6z"/>
<path d="M7156 3893 c-12 -12 -5 -23 14 -23 11 0 20 4 20 9 0 11 -26 22 -34
14z"/>
<path d="M7000 3233 c0 -22 -7 -41 -17 -49 -10 -7 -13 -14 -6 -14 6 0 18 6 25
14 14 14 98 19 98 6 0 -9 50 -23 56 -17 3 2 -32 25 -76 49 l-80 46 0 -35z"/>
<path d="M6930 3236 c0 -25 12 -46 25 -46 11 0 10 6 -1 30 -17 33 -24 38 -24
16z"/>
<path d="M6915 3170 c-13 -6 -15 -9 -5 -9 8 0 22 4 30 9 18 12 2 12 -25 0z"/>
<path d="M9340 2510 c-9 -6 -10 -10 -3 -10 6 0 15 5 18 10 8 12 4 12 -15 0z"/>
<path d="M8610 2015 c0 -8 4 -15 9 -15 5 0 11 7 15 15 3 9 0 15 -9 15 -8 0
-15 -7 -15 -15z"/>
<path d="M5840 1940 c0 -5 5 -10 10 -10 6 0 10 5 10 10 0 6 -4 10 -10 10 -5 0
-10 -4 -10 -10z"/>
<path d="M5385 1895 c-22 -13 -35 -24 -30 -24 6 0 28 11 50 24 22 14 36 25 30
25 -5 0 -28 -11 -50 -25z"/>
<path d="M5565 1730 c-7 -12 2 -12 30 0 19 8 19 9 -2 9 -12 1 -25 -3 -28 -9z"/>
<path d="M5520 1710 c-8 -5 -10 -10 -5 -10 6 0 17 5 25 10 8 5 11 10 5 10 -5
0 -17 -5 -25 -10z"/>
<path d="M5475 1680 c-3 -6 1 -7 9 -4 18 7 21 14 7 14 -6 0 -13 -4 -16 -10z"/>
<path d="M5702 1645 c-70 -20 -106 -39 -131 -71 -25 -31 -27 -90 -6 -118 8
-11 15 -15 15 -9 0 7 -4 15 -10 18 -11 7 -13 45 -4 69 3 9 10 13 15 10 5 -3 6
1 3 9 -4 10 11 23 48 41 107 53 223 53 332 1 48 -23 57 -32 67 -65 7 -22 16
-37 20 -34 16 9 9 -13 -11 -39 -21 -26 -99 -72 -108 -62 -3 3 -15 -1 -27 -9
-12 -8 -30 -16 -41 -19 -10 -2 -2 -3 20 0 52 5 141 48 166 80 48 62 -2 154
-102 187 -74 24 -181 29 -246 11z"/>
<path d="M5419 1633 c-13 -16 -12 -17 4 -4 16 13 21 21 13 21 -2 0 -10 -8 -17
-17z"/>
<path d="M6007 1535 c-4 -8 -3 -16 1 -19 4 -3 9 4 9 15 2 23 -3 25 -10 4z"/>
<path d="M5693 1509 c-5 -67 67 -111 147 -89 22 6 40 16 40 21 0 6 7 9 14 6
11 -4 13 -1 9 10 -4 9 -2 14 3 11 5 -4 9 7 9 22 1 16 -3 26 -7 24 -4 -3 -8
-14 -8 -24 0 -25 -48 -50 -98 -50 -48 0 -92 31 -92 66 0 30 -15 32 -17 3z"/>
<path d="M4740 1436 c0 -3 9 -10 20 -16 11 -6 20 -8 20 -6 0 3 -9 10 -20 16
-11 6 -20 8 -20 6z"/>
<path d="M5647 1389 c7 -7 15 -10 18 -7 3 3 -2 9 -12 12 -14 6 -15 5 -6 -5z"/>
<path d="M5723 1363 c9 -2 23 -2 30 0 6 3 -1 5 -18 5 -16 0 -22 -2 -12 -5z"/>
<path d="M5112 1253 c-6 -2 -10 -9 -7 -13 7 -11 35 -2 35 11 0 10 -8 10 -28 2z"/>
<path d="M4950 1176 c0 -2 7 -7 16 -10 8 -3 12 -2 9 4 -6 10 -25 14 -25 6z"/>
<path d="M5050 1117 c0 -7 72 -48 76 -44 2 2 -14 14 -36 26 -22 12 -40 20 -40
18z"/>
<path d="M5140 1056 c0 -2 7 -7 16 -10 8 -3 12 -2 9 4 -6 10 -25 14 -25 6z"/>
<path d="M3429 493 c-13 -16 -12 -17 4 -4 9 7 17 15 17 17 0 8 -8 3 -21 -13z"/>
<path d="M2064 1621 c4 -6 16 -16 28 -22 15 -8 18 -8 14 0 -4 6 -16 16 -28 22
-15 8 -18 8 -14 0z"/>
<path d="M6270 790 c0 -5 5 -10 10 -10 6 0 10 5 10 10 0 6 -4 10 -10 10 -5 0
-10 -4 -10 -10z"/>
<path d="M6800 390 c0 -28 2 -30 38 -29 49 1 85 12 90 27 2 7 -6 12 -22 12
-14 0 -26 5 -26 10 0 6 -18 10 -40 10 -38 0 -40 -2 -40 -30z"/>
<path d="M8000 230 c0 -6 33 -10 80 -10 47 0 80 4 80 10 0 6 -33 10 -80 10
-47 0 -80 -4 -80 -10z"/>
<path d="M8658 73 c12 -2 32 -2 45 0 12 2 2 4 -23 4 -25 0 -35 -2 -22 -4z"/>
<path d="M4838 23 c23 -2 59 -2 80 0 20 2 1 4 -43 4 -44 0 -61 -2 -37 -4z"/>
</g>
</svg>
